<svg xmlns="http://www.w3.org/2000/svg" xmlns:xlink="http://www.w3.org/1999/xlink" version="1.1" class="marks" width="1096" height="893" viewBox="0 0 1096 893"><rect width="1096" height="893" fill="white"/><g fill="none" stroke-miterlimit="10" transform="translate(67,10)"><g class="mark-group role-frame root" role="graphics-object" aria-roledescription="group mark container"><g transform="translate(0,0)"><path class="background" aria-hidden="true" d="M0.5,0.5h1024v800h-1024Z" stroke="#ddd"/><g><g class="mark-group role-axis" aria-hidden="true"><g transform="translate(0.5,0.5)"><path class="background" aria-hidden="true" d="M0,0h0v0h0Z" pointer-events="none"/><g><g class="mark-rule role-axis-grid" pointer-events="none"><line transform="translate(0,800)" x2="1024" y2="0" stroke="#ddd" stroke-width="1" opacity="1"/><line transform="translate(0,769)" x2="1024" y2="0" stroke="#ddd" stroke-width="1" opacity="1"/><line transform="translate(0,738)" x2="1024" y2="0" stroke="#ddd" stroke-width="1" opacity="1"/><line transform="translate(0,708)" x2="1024" y2="0" stroke="#ddd" stroke-width="1" opacity="1"/><line transform="translate(0,677)" x2="1024" y2="0" stroke="#ddd" stroke-width="1" opacity="1"/><line transform="translate(0,646)" x2="1024" y2="0" stroke="#ddd" stroke-width="1" opacity="1"/><line transform="translate(0,615)" x2="1024" y2="0" stroke="#ddd" stroke-width="1" opacity="1"/><line transform="translate(0,585)" x2="1024" y2="0" stroke="#ddd" stroke-width="1" opacity="1"/><line transform="translate(0,554)" x2="1024" y2="0" stroke="#ddd" stroke-width="1" opacity="1"/><line transform="translate(0,523)" x2="1024" y2="0" stroke="#ddd" stroke-width="1" opacity="1"/><line transform="translate(0,492)" x2="1024" y2="0" stroke="#ddd" stroke-width="1" opacity="1"/><line transform="translate(0,462)" x2="1024" y2="0" stroke="#ddd" stroke-width="1" opacity="1"/><line transform="translate(0,431)" x2="1024" y2="0" stroke="#ddd" stroke-width="1" opacity="1"/><line transform="translate(0,400)" x2="1024" y2="0" stroke="#ddd" stroke-width="1" opacity="1"/><line transform="translate(0,369)" x2="1024" y2="0" stroke="#ddd" stroke-width="1" opacity="1"/><line transform="translate(0,338)" x2="1024" y2="0" stroke="#ddd" stroke-width="1" opacity="1"/><line transform="translate(0,308)" x2="1024" y2="0" stroke="#ddd" stroke-width="1" opacity="1"/><line transform="translate(0,277)" x2="1024" y2="0" stroke="#ddd" stroke-width="1" opacity="1"/><line transform="translate(0,246)" x2="1024" y2="0" stroke="#ddd" stroke-width="1" opacity="1"/><line transform="translate(0,215)" x2="1024" y2="0" stroke="#ddd" stroke-width="1" opacity="1"/><line transform="translate(0,185)" x2="1024" y2="0" stroke="#ddd" stroke-width="1" opacity="1"/><line transform="translate(0,154)" x2="1024" y2="0" stroke="#ddd" stroke-width="1" opacity="1"/><line transform="translate(0,123)" x2="1024" y2="0" stroke="#ddd" stroke-width="1" opacity="1"/><line transform="translate(0,92)" x2="1024" y2="0" stroke="#ddd" stroke-width="1" opacity="1"/><line transform="translate(0,62)" x2="1024" y2="0" stroke="#ddd" stroke-width="1" opacity="1"/><line transform="translate(0,31)" x2="1024" y2="0" stroke="#ddd" stroke-width="1" opacity="1"/><line transform="translate(0,0)" x2="1024" y2="0" stroke="#ddd" stroke-width="1" opacity="1"/></g></g><path class="foreground" aria-hidden="true" d="" pointer-events="none" display="none"/></g></g><g class="mark-group role-axis" role="graphics-symbol" aria-roledescription="axis" aria-label="X-axis titled 'month' for a discrete scale with 51 values: 2019-10, 2019-11, 2019-12, 2020-01, 2020-02, ending with 2023-12"><g transform="translate(0.5,800.5)"><path class="background" aria-hidden="true" d="M0,0h0v0h0Z" pointer-events="none"/><g><g class="mark-rule role-axis-tick" pointer-events="none"><line transform="translate(10,0)" x2="0" y2="5" stroke="#888" stroke-width="1" opacity="1"/><line transform="translate(30,0)" x2="0" y2="5" stroke="#888" stroke-width="1" opacity="1"/><line transform="translate(50,0)" x2="0" y2="5" stroke="#888" stroke-width="1" opacity="1"/><line transform="translate(70,0)" x2="0" y2="5" stroke="#888" stroke-width="1" opacity="1"/><line transform="translate(90,0)" x2="0" y2="5" stroke="#888" stroke-width="1" opacity="1"/><line transform="translate(110,0)" x2="0" y2="5" stroke="#888" stroke-width="1" opacity="1"/><line transform="translate(130,0)" x2="0" y2="5" stroke="#888" stroke-width="1" opacity="1"/><line transform="translate(150,0)" x2="0" y2="5" stroke="#888" stroke-width="1" opacity="1"/><line transform="translate(170,0)" x2="0" y2="5" stroke="#888" stroke-width="1" opacity="1"/><line transform="translate(190,0)" x2="0" y2="5" stroke="#888" stroke-width="1" opacity="1"/><line transform="translate(210,0)" x2="0" y2="5" stroke="#888" stroke-width="1" opacity="1"/><line transform="translate(230,0)" x2="0" y2="5" stroke="#888" stroke-width="1" opacity="1"/><line transform="translate(250,0)" x2="0" y2="5" stroke="#888" stroke-width="1" opacity="1"/><line transform="translate(271,0)" x2="0" y2="5" stroke="#888" stroke-width="1" opacity="1"/><line transform="translate(291,0)" x2="0" y2="5" stroke="#888" stroke-width="1" opacity="1"/><line transform="translate(311,0)" x2="0" y2="5" stroke="#888" stroke-width="1" opacity="1"/><line transform="translate(331,0)" x2="0" y2="5" stroke="#888" stroke-width="1" opacity="1"/><line transform="translate(351,0)" x2="0" y2="5" stroke="#888" stroke-width="1" opacity="1"/><line transform="translate(371,0)" x2="0" y2="5" stroke="#888" stroke-width="1" opacity="1"/><line transform="translate(391,0)" x2="0" y2="5" stroke="#888" stroke-width="1" opacity="1"/><line transform="translate(411,0)" x2="0" y2="5" stroke="#888" stroke-width="1" opacity="1"/><line transform="translate(431,0)" x2="0" y2="5" stroke="#888" stroke-width="1" opacity="1"/><line transform="translate(451,0)" x2="0" y2="5" stroke="#888" stroke-width="1" opacity="1"/><line transform="translate(471,0)" x2="0" y2="5" stroke="#888" stroke-width="1" opacity="1"/><line transform="translate(491,0)" x2="0" y2="5" stroke="#888" stroke-width="1" opacity="1"/><line transform="translate(512,0)" x2="0" y2="5" stroke="#888" stroke-width="1" opacity="1"/><line transform="translate(532,0)" x2="0" y2="5" stroke="#888" stroke-width="1" opacity="1"/><line transform="translate(552,0)" x2="0" y2="5" stroke="#888" stroke-width="1" opacity="1"/><line transform="translate(572,0)" x2="0" y2="5" stroke="#888" stroke-width="1" opacity="1"/><line transform="translate(592,0)" x2="0" y2="5" stroke="#888" stroke-width="1" opacity="1"/><line transform="translate(612,0)" x2="0" y2="5" stroke="#888" stroke-width="1" opacity="1"/><line transform="translate(632,0)" x2="0" y2="5" stroke="#888" stroke-width="1" opacity="1"/><line transform="translate(652,0)" x2="0" y2="5" stroke="#888" stroke-width="1" opacity="1"/><line transform="translate(672,0)" x2="0" y2="5" stroke="#888" stroke-width="1" opacity="1"/><line transform="translate(692,0)" x2="0" y2="5" stroke="#888" stroke-width="1" opacity="1"/><line transform="translate(712,0)" x2="0" y2="5" stroke="#888" stroke-width="1" opacity="1"/><line transform="translate(732,0)" x2="0" y2="5" stroke="#888" stroke-width="1" opacity="1"/><line transform="translate(752,0)" x2="0" y2="5" stroke="#888" stroke-width="1" opacity="1"/><line transform="translate(773,0)" x2="0" y2="5" stroke="#888" stroke-width="1" opacity="1"/><line transform="translate(793,0)" x2="0" y2="5" stroke="#888" stroke-width="1" opacity="1"/><line transform="translate(813,0)" x2="0" y2="5" stroke="#888" stroke-width="1" opacity="1"/><line transform="translate(833,0)" x2="0" y2="5" stroke="#888" stroke-width="1" opacity="1"/><line transform="translate(853,0)" x2="0" y2="5" stroke="#888" stroke-width="1" opacity="1"/><line transform="translate(873,0)" x2="0" y2="5" stroke="#888" stroke-width="1" opacity="1"/><line transform="translate(893,0)" x2="0" y2="5" stroke="#888" stroke-width="1" opacity="1"/><line transform="translate(913,0)" x2="0" y2="5" stroke="#888" stroke-width="1" opacity="1"/><line transform="translate(933,0)" x2="0" y2="5" stroke="#888" stroke-width="1" opacity="1"/><line transform="translate(953,0)" x2="0" y2="5" stroke="#888" stroke-width="1" opacity="1"/><line transform="translate(973,0)" x2="0" y2="5" stroke="#888" stroke-width="1" opacity="1"/><line transform="translate(993,0)" x2="0" y2="5" stroke="#888" stroke-width="1" opacity="1"/><line transform="translate(1013,0)" x2="0" y2="5" stroke="#888" stroke-width="1" opacity="1"/></g><g class="mark-text role-axis-label" pointer-events="none"><text text-anchor="end" transform="translate(9.539215686274506,7) rotate(270) translate(0,3)" font-family="sans-serif" font-size="10px" fill="#000" opacity="1">2019-10</text><text text-anchor="end" transform="translate(29.617647058823525,7) rotate(270) translate(0,3)" font-family="sans-serif" font-size="10px" fill="#000" opacity="1">2019-11</text><text text-anchor="end" transform="translate(49.69607843137254,7) rotate(270) translate(0,3)" font-family="sans-serif" font-size="10px" fill="#000" opacity="1">2019-12</text><text text-anchor="end" transform="translate(69.77450980392156,7) rotate(270) translate(0,3)" font-family="sans-serif" font-size="10px" fill="#000" opacity="1">2020-01</text><text text-anchor="end" transform="translate(89.85294117647058,7) rotate(270) translate(0,3)" font-family="sans-serif" font-size="10px" fill="#000" opacity="1">2020-02</text><text text-anchor="end" transform="translate(109.9313725490196,7) rotate(270) translate(0,3)" font-family="sans-serif" font-size="10px" fill="#000" opacity="1">2020-03</text><text text-anchor="end" transform="translate(130.00980392156862,7) rotate(270) translate(0,3)" font-family="sans-serif" font-size="10px" fill="#000" opacity="1">2020-04</text><text text-anchor="end" transform="translate(150.08823529411765,7) rotate(270) translate(0,3)" font-family="sans-serif" font-size="10px" fill="#000" opacity="1">2020-05</text><text text-anchor="end" transform="translate(170.16666666666666,7) rotate(270) translate(0,3)" font-family="sans-serif" font-size="10px" fill="#000" opacity="1">2020-06</text><text text-anchor="end" transform="translate(190.24509803921566,7) rotate(270) translate(0,3)" font-family="sans-serif" font-size="10px" fill="#000" opacity="1">2020-07</text><text text-anchor="end" transform="translate(210.3235294117647,7) rotate(270) translate(0,3)" font-family="sans-serif" font-size="10px" fill="#000" opacity="1">2020-08</text><text text-anchor="end" transform="translate(230.40196078431373,7) rotate(270) translate(0,3)" font-family="sans-serif" font-size="10px" fill="#000" opacity="1">2020-09</text><text text-anchor="end" transform="translate(250.48039215686273,7) rotate(270) translate(0,3)" font-family="sans-serif" font-size="10px" fill="#000" opacity="1">2020-10</text><text text-anchor="end" transform="translate(270.55882352941177,7) rotate(270) translate(0,3)" font-family="sans-serif" font-size="10px" fill="#000" opacity="1">2020-11</text><text text-anchor="end" transform="translate(290.63725490196083,7) rotate(270) translate(0,3)" font-family="sans-serif" font-size="10px" fill="#000" opacity="1">2020-12</text><text text-anchor="end" transform="translate(310.71568627450984,7) rotate(270) translate(0,3)" font-family="sans-serif" font-size="10px" fill="#000" opacity="1">2021-01</text><text text-anchor="end" transform="translate(330.79411764705884,7) rotate(270) translate(0,3)" font-family="sans-serif" font-size="10px" fill="#000" opacity="1">2021-02</text><text text-anchor="end" transform="translate(350.87254901960785,7) rotate(270) translate(0,3)" font-family="sans-serif" font-size="10px" fill="#000" opacity="1">2021-03</text><text text-anchor="end" transform="translate(370.95098039215685,7) rotate(270) translate(0,3)" font-family="sans-serif" font-size="10px" fill="#000" opacity="1">2021-04</text><text text-anchor="end" transform="translate(391.0294117647059,7) rotate(270) translate(0,3)" font-family="sans-serif" font-size="10px" fill="#000" opacity="1">2021-05</text><text text-anchor="end" transform="translate(411.1078431372549,7) rotate(270) translate(0,3)" font-family="sans-serif" font-size="10px" fill="#000" opacity="1">2021-06</text><text text-anchor="end" transform="translate(431.1862745098039,7) rotate(270) translate(0,3)" font-family="sans-serif" font-size="10px" fill="#000" opacity="1">2021-07</text><text text-anchor="end" transform="translate(451.264705882353,7) rotate(270) translate(0,3)" font-family="sans-serif" font-size="10px" fill="#000" opacity="1">2021-08</text><text text-anchor="end" transform="translate(471.343137254902,7) rotate(270) translate(0,3)" font-family="sans-serif" font-size="10px" fill="#000" opacity="1">2021-09</text><text text-anchor="end" transform="translate(491.421568627451,7) rotate(270) translate(0,3)" font-family="sans-serif" font-size="10px" fill="#000" opacity="1">2021-10</text><text text-anchor="end" transform="translate(511.5,7) rotate(270) translate(0,3)" font-family="sans-serif" font-size="10px" fill="#000" opacity="1">2021-11</text><text text-anchor="end" transform="translate(531.578431372549,7) rotate(270) translate(0,3)" font-family="sans-serif" font-size="10px" fill="#000" opacity="1">2021-12</text><text text-anchor="end" transform="translate(551.656862745098,7) rotate(270) translate(0,3)" font-family="sans-serif" font-size="10px" fill="#000" opacity="1">2022-01</text><text text-anchor="end" transform="translate(571.7352941176471,7) rotate(270) translate(0,3)" font-family="sans-serif" font-size="10px" fill="#000" opacity="1">2022-02</text><text text-anchor="end" transform="translate(591.813725490196,7) rotate(270) translate(0,3)" font-family="sans-serif" font-size="10px" fill="#000" opacity="1">2022-03</text><text text-anchor="end" transform="translate(611.8921568627451,7) rotate(270) translate(0,3)" font-family="sans-serif" font-size="10px" fill="#000" opacity="1">2022-04</text><text text-anchor="end" transform="translate(631.970588235294,7) rotate(270) translate(0,3)" font-family="sans-serif" font-size="10px" fill="#000" opacity="1">2022-05</text><text text-anchor="end" transform="translate(652.0490196078431,7) rotate(270) translate(0,3)" font-family="sans-serif" font-size="10px" fill="#000" opacity="1">2022-06</text><text text-anchor="end" transform="translate(672.1274509803922,7) rotate(270) translate(0,3)" font-family="sans-serif" font-size="10px" fill="#000" opacity="1">2022-07</text><text text-anchor="end" transform="translate(692.2058823529411,7) rotate(270) translate(0,3)" font-family="sans-serif" font-size="10px" fill="#000" opacity="1">2022-08</text><text text-anchor="end" transform="translate(712.2843137254902,7) rotate(270) translate(0,3)" font-family="sans-serif" font-size="10px" fill="#000" opacity="1">2022-09</text><text text-anchor="end" transform="translate(732.3627450980391,7) rotate(270) translate(0,3)" font-family="sans-serif" font-size="10px" fill="#000" opacity="1">2022-10</text><text text-anchor="end" transform="translate(752.4411764705882,7) rotate(270) translate(0,3)" font-family="sans-serif" font-size="10px" fill="#000" opacity="1">2022-11</text><text text-anchor="end" transform="translate(772.5196078431372,7) rotate(270) translate(0,3)" font-family="sans-serif" font-size="10px" fill="#000" opacity="1">2022-12</text><text text-anchor="end" transform="translate(792.5980392156862,7) rotate(270) translate(0,3)" font-family="sans-serif" font-size="10px" fill="#000" opacity="1">2023-01</text><text text-anchor="end" transform="translate(812.6764705882352,7) rotate(270) translate(0,3)" font-family="sans-serif" font-size="10px" fill="#000" opacity="1">2023-02</text><text text-anchor="end" transform="translate(832.7549019607843,7) rotate(270) translate(0,3)" font-family="sans-serif" font-size="10px" fill="#000" opacity="1">2023-03</text><text text-anchor="end" transform="translate(852.8333333333333,7) rotate(270) translate(0,3)" font-family="sans-serif" font-size="10px" fill="#000" opacity="1">2023-04</text><text text-anchor="end" transform="translate(872.9117647058823,7) rotate(270) translate(0,3)" font-family="sans-serif" font-size="10px" fill="#000" opacity="1">2023-05</text><text text-anchor="end" transform="translate(892.9901960784314,7) rotate(270) translate(0,3)" font-family="sans-serif" font-size="10px" fill="#000" opacity="1">2023-06</text><text text-anchor="end" transform="translate(913.0686274509803,7) rotate(270) translate(0,3)" font-family="sans-serif" font-size="10px" fill="#000" opacity="1">2023-07</text><text text-anchor="end" transform="translate(933.1470588235294,7) rotate(270) translate(0,3)" font-family="sans-serif" font-size="10px" fill="#000" opacity="1">2023-08</text><text text-anchor="end" transform="translate(953.2254901960783,7) rotate(270) translate(0,3)" font-family="sans-serif" font-size="10px" fill="#000" opacity="1">2023-09</text><text text-anchor="end" transform="translate(973.3039215686274,7) rotate(270) translate(0,3)" font-family="sans-serif" font-size="10px" fill="#000" opacity="1">2023-10</text><text text-anchor="end" transform="translate(993.3823529411765,7) rotate(270) translate(0,3)" font-family="sans-serif" font-size="10px" fill="#000" opacity="1">2023-11</text><text text-anchor="end" transform="translate(1013.4607843137254,7) rotate(270) translate(0,3)" font-family="sans-serif" font-size="10px" fill="#000" opacity="1">2023-12</text></g><g class="mark-rule role-axis-domain" pointer-events="none"><line transform="translate(0,0)" x2="1024" y2="0" stroke="#888" stroke-width="1" opacity="1"/></g><g class="mark-text role-axis-title" pointer-events="none"><text text-anchor="middle" transform="translate(512,76.00000000000003)" font-family="sans-serif" font-size="11px" font-weight="bold" fill="#000" opacity="1">month</text></g></g><path class="foreground" aria-hidden="true" d="" pointer-events="none" display="none"/></g></g><g class="mark-group role-axis" role="graphics-symbol" aria-roledescription="axis" aria-label="Y-axis titled 'estimatedIncomeDollar' for a linear scale with values from 0 to 1,300"><g transform="translate(0.5,0.5)"><path class="background" aria-hidden="true" d="M0,0h0v0h0Z" pointer-events="none"/><g><g class="mark-rule role-axis-tick" pointer-events="none"><line transform="translate(0,800)" x2="-5" y2="0" stroke="#888" stroke-width="1" opacity="1"/><line transform="translate(0,769)" x2="-5" y2="0" stroke="#888" stroke-width="1" opacity="1"/><line transform="translate(0,738)" x2="-5" y2="0" stroke="#888" stroke-width="1" opacity="1"/><line transform="translate(0,708)" x2="-5" y2="0" stroke="#888" stroke-width="1" opacity="1"/><line transform="translate(0,677)" x2="-5" y2="0" stroke="#888" stroke-width="1" opacity="1"/><line transform="translate(0,646)" x2="-5" y2="0" stroke="#888" stroke-width="1" opacity="1"/><line transform="translate(0,615)" x2="-5" y2="0" stroke="#888" stroke-width="1" opacity="1"/><line transform="translate(0,585)" x2="-5" y2="0" stroke="#888" stroke-width="1" opacity="1"/><line transform="translate(0,554)" x2="-5" y2="0" stroke="#888" stroke-width="1" opacity="1"/><line transform="translate(0,523)" x2="-5" y2="0" stroke="#888" stroke-width="1" opacity="1"/><line transform="translate(0,492)" x2="-5" y2="0" stroke="#888" stroke-width="1" opacity="1"/><line transform="translate(0,462)" x2="-5" y2="0" stroke="#888" stroke-width="1" opacity="1"/><line transform="translate(0,431)" x2="-5" y2="0" stroke="#888" stroke-width="1" opacity="1"/><line transform="translate(0,400)" x2="-5" y2="0" stroke="#888" stroke-width="1" opacity="1"/><line transform="translate(0,369)" x2="-5" y2="0" stroke="#888" stroke-width="1" opacity="1"/><line transform="translate(0,338)" x2="-5" y2="0" stroke="#888" stroke-width="1" opacity="1"/><line transform="translate(0,308)" x2="-5" y2="0" stroke="#888" stroke-width="1" opacity="1"/><line transform="translate(0,277)" x2="-5" y2="0" stroke="#888" stroke-width="1" opacity="1"/><line transform="translate(0,246)" x2="-5" y2="0" stroke="#888" stroke-width="1" opacity="1"/><line transform="translate(0,215)" x2="-5" y2="0" stroke="#888" stroke-width="1" opacity="1"/><line transform="translate(0,185)" x2="-5" y2="0" stroke="#888" stroke-width="1" opacity="1"/><line transform="translate(0,154)" x2="-5" y2="0" stroke="#888" stroke-width="1" opacity="1"/><line transform="translate(0,123)" x2="-5" y2="0" stroke="#888" stroke-width="1" opacity="1"/><line transform="translate(0,92)" x2="-5" y2="0" stroke="#888" stroke-width="1" opacity="1"/><line transform="translate(0,62)" x2="-5" y2="0" stroke="#888" stroke-width="1" opacity="1"/><line transform="translate(0,31)" x2="-5" y2="0" stroke="#888" stroke-width="1" opacity="1"/><line transform="translate(0,0)" x2="-5" y2="0" stroke="#888" stroke-width="1" opacity="1"/></g><g class="mark-text role-axis-label" pointer-events="none"><text text-anchor="end" transform="translate(-7,803)" font-family="sans-serif" font-size="10px" fill="#000" opacity="1">0</text><text text-anchor="end" transform="translate(-7,772.2307692307693)" font-family="sans-serif" font-size="10px" fill="#000" opacity="1">50</text><text text-anchor="end" transform="translate(-7,741.4615384615385)" font-family="sans-serif" font-size="10px" fill="#000" opacity="1">100</text><text text-anchor="end" transform="translate(-7,710.6923076923076)" font-family="sans-serif" font-size="10px" fill="#000" opacity="1">150</text><text text-anchor="end" transform="translate(-7,679.9230769230769)" font-family="sans-serif" font-size="10px" fill="#000" opacity="1">200</text><text text-anchor="end" transform="translate(-7,649.1538461538462)" font-family="sans-serif" font-size="10px" fill="#000" opacity="1">250</text><text text-anchor="end" transform="translate(-7,618.3846153846154)" font-family="sans-serif" font-size="10px" fill="#000" opacity="1">300</text><text text-anchor="end" transform="translate(-7,587.6153846153846)" font-family="sans-serif" font-size="10px" fill="#000" opacity="1">350</text><text text-anchor="end" transform="translate(-7,556.8461538461538)" font-family="sans-serif" font-size="10px" fill="#000" opacity="1">400</text><text text-anchor="end" transform="translate(-7,526.0769230769231)" font-family="sans-serif" font-size="10px" fill="#000" opacity="1">450</text><text text-anchor="end" transform="translate(-7,495.3076923076923)" font-family="sans-serif" font-size="10px" fill="#000" opacity="1">500</text><text text-anchor="end" transform="translate(-7,464.5384615384615)" font-family="sans-serif" font-size="10px" fill="#000" opacity="1">550</text><text text-anchor="end" transform="translate(-7,433.7692307692308)" font-family="sans-serif" font-size="10px" fill="#000" opacity="1">600</text><text text-anchor="end" transform="translate(-7,403)" font-family="sans-serif" font-size="10px" fill="#000" opacity="1">650</text><text text-anchor="end" transform="translate(-7,372.2307692307692)" font-family="sans-serif" font-size="10px" fill="#000" opacity="1">700</text><text text-anchor="end" transform="translate(-7,341.4615384615385)" font-family="sans-serif" font-size="10px" fill="#000" opacity="1">750</text><text text-anchor="end" transform="translate(-7,310.6923076923077)" font-family="sans-serif" font-size="10px" fill="#000" opacity="1">800</text><text text-anchor="end" transform="translate(-7,279.9230769230769)" font-family="sans-serif" font-size="10px" fill="#000" opacity="1">850</text><text text-anchor="end" transform="translate(-7,249.15384615384616)" font-family="sans-serif" font-size="10px" fill="#000" opacity="1">900</text><text text-anchor="end" transform="translate(-7,218.38461538461542)" font-family="sans-serif" font-size="10px" fill="#000" opacity="1">950</text><text text-anchor="end" transform="translate(-7,187.61538461538458)" font-family="sans-serif" font-size="10px" fill="#000" opacity="1">1,000</text><text text-anchor="end" transform="translate(-7,156.84615384615384)" font-family="sans-serif" font-size="10px" fill="#000" opacity="1">1,050</text><text text-anchor="end" transform="translate(-7,126.07692307692308)" font-family="sans-serif" font-size="10px" fill="#000" opacity="1">1,100</text><text text-anchor="end" transform="translate(-7,95.30769230769234)" font-family="sans-serif" font-size="10px" fill="#000" opacity="1">1,150</text><text text-anchor="end" transform="translate(-7,64.53846153846149)" font-family="sans-serif" font-size="10px" fill="#000" opacity="1">1,200</text><text text-anchor="end" transform="translate(-7,33.769230769230745)" font-family="sans-serif" font-size="10px" fill="#000" opacity="1">1,250</text><text text-anchor="end" transform="translate(-7,3)" font-family="sans-serif" font-size="10px" fill="#000" opacity="1">1,300</text></g><g class="mark-rule role-axis-domain" pointer-events="none"><line transform="translate(0,800)" x2="0" y2="-800" stroke="#888" stroke-width="1" opacity="1"/></g><g class="mark-text role-axis-title" pointer-events="none"><text text-anchor="middle" transform="translate(-51,400) rotate(-90) translate(0,-2)" font-family="sans-serif" font-size="11px" font-weight="bold" fill="#000" opacity="1">estimatedIncomeDollar</text></g></g><path class="foreground" aria-hidden="true" d="" pointer-events="none" display="none"/></g></g><g class="mark-rect role-mark marks" role="graphics-object" aria-roledescription="rect mark container"><path aria-label="month: 2019-10; estimatedIncomeDollar: 60" role="graphics-symbol" aria-roledescription="bar" d="M1.0039215686274474,763.076923076923h18.070588235294117v36.92307692307702h-18.070588235294117Z" fill="#4c78a8"/><path aria-label="month: 2019-11; estimatedIncomeDollar: 65" role="graphics-symbol" aria-roledescription="bar" d="M21.082352941176467,760h18.070588235294117v40h-18.070588235294117Z" fill="#4c78a8"/><path aria-label="month: 2019-12; estimatedIncomeDollar: 71" role="graphics-symbol" aria-roledescription="bar" d="M41.160784313725486,756.3076923076923h18.070588235294117v43.692307692307736h-18.070588235294117Z" fill="#4c78a8"/><path aria-label="month: 2020-01; estimatedIncomeDollar: 77" role="graphics-symbol" aria-roledescription="bar" d="M61.239215686274505,752.6153846153846h18.070588235294117v47.38461538461536h-18.070588235294117Z" fill="#4c78a8"/><path aria-label="month: 2020-02; estimatedIncomeDollar: 77" role="graphics-symbol" aria-roledescription="bar" d="M81.31764705882352,752.6153846153846h18.070588235294117v47.38461538461536h-18.070588235294117Z" fill="#4c78a8"/><path aria-label="month: 2020-03; estimatedIncomeDollar: 82" role="graphics-symbol" aria-roledescription="bar" d="M101.39607843137254,749.5384615384615h18.070588235294117v50.46153846153845h-18.070588235294117Z" fill="#4c78a8"/><path aria-label="month: 2020-04; estimatedIncomeDollar: 85" role="graphics-symbol" aria-roledescription="bar" d="M121.47450980392156,747.6923076923077h18.070588235294117v52.307692307692264h-18.070588235294117Z" fill="#4c78a8"/><path aria-label="month: 2020-05; estimatedIncomeDollar: 91" role="graphics-symbol" aria-roledescription="bar" d="M141.5529411764706,744h18.070588235294117v56h-18.070588235294117Z" fill="#4c78a8"/><path aria-label="month: 2020-06; estimatedIncomeDollar: 92" role="graphics-symbol" aria-roledescription="bar" d="M161.6313725490196,743.3846153846154h18.070588235294117v56.61538461538464h-18.070588235294117Z" fill="#4c78a8"/><path aria-label="month: 2020-07; estimatedIncomeDollar: 92" role="graphics-symbol" aria-roledescription="bar" d="M181.7098039215686,743.3846153846154h18.070588235294117v56.61538461538464h-18.070588235294117Z" fill="#4c78a8"/><path aria-label="month: 2020-08; estimatedIncomeDollar: 94" role="graphics-symbol" aria-roledescription="bar" d="M201.78823529411764,742.1538461538462h18.070588235294117v57.84615384615381h-18.070588235294117Z" fill="#4c78a8"/><path aria-label="month: 2020-09; estimatedIncomeDollar: 95" role="graphics-symbol" aria-roledescription="bar" d="M221.86666666666667,741.5384615384615h18.070588235294117v58.46153846153845h-18.070588235294117Z" fill="#4c78a8"/><path aria-label="month: 2020-10; estimatedIncomeDollar: 95" role="graphics-symbol" aria-roledescription="bar" d="M241.94509803921568,741.5384615384615h18.070588235294117v58.46153846153845h-18.070588235294117Z" fill="#4c78a8"/><path aria-label="month: 2020-11; estimatedIncomeDollar: 96" role="graphics-symbol" aria-roledescription="bar" d="M262.0235294117647,740.9230769230769h18.070588235294117v59.076923076923094h-18.070588235294117Z" fill="#4c78a8"/><path aria-label="month: 2020-12; estimatedIncomeDollar: 448" role="graphics-symbol" aria-roledescription="bar" d="M282.10196078431375,524.3076923076924h18.070588235294117v275.6923076923076h-18.070588235294117Z" fill="#4c78a8"/><path aria-label="month: 2021-01; estimatedIncomeDollar: 455" role="graphics-symbol" aria-roledescription="bar" d="M302.18039215686275,520h18.070588235294117v280h-18.070588235294117Z" fill="#4c78a8"/><path aria-label="month: 2021-02; estimatedIncomeDollar: 466" role="graphics-symbol" aria-roledescription="bar" d="M322.25882352941176,513.2307692307693h18.070588235294117v286.7692307692307h-18.070588235294117Z" fill="#4c78a8"/><path aria-label="month: 2021-03; estimatedIncomeDollar: 478" role="graphics-symbol" aria-roledescription="bar" d="M342.33725490196076,505.8461538461538h18.070588235294117v294.1538461538462h-18.070588235294117Z" fill="#4c78a8"/><path aria-label="month: 2021-04; estimatedIncomeDollar: 489" role="graphics-symbol" aria-roledescription="bar" d="M362.41568627450977,499.07692307692304h18.070588235294117v300.92307692307696h-18.070588235294117Z" fill="#4c78a8"/><path aria-label="month: 2021-05; estimatedIncomeDollar: 802" role="graphics-symbol" aria-roledescription="bar" d="M382.49411764705883,306.46153846153845h18.070588235294117v493.53846153846155h-18.070588235294117Z" fill="#4c78a8"/><path aria-label="month: 2021-06; estimatedIncomeDollar: 804" role="graphics-symbol" aria-roledescription="bar" d="M402.57254901960783,305.23076923076917h18.070588235294117v494.76923076923083h-18.070588235294117Z" fill="#4c78a8"/><path aria-label="month: 2021-07; estimatedIncomeDollar: 804" role="graphics-symbol" aria-roledescription="bar" d="M422.65098039215684,305.23076923076917h18.070588235294117v494.76923076923083h-18.070588235294117Z" fill="#4c78a8"/><path aria-label="month: 2021-08; estimatedIncomeDollar: 805" role="graphics-symbol" aria-roledescription="bar" d="M442.7294117647059,304.6153846153846h18.070588235294117v495.3846153846154h-18.070588235294117Z" fill="#4c78a8"/><path aria-label="month: 2021-09; estimatedIncomeDollar: 812" role="graphics-symbol" aria-roledescription="bar" d="M462.8078431372549,300.3076923076923h18.070588235294117v499.6923076923077h-18.070588235294117Z" fill="#4c78a8"/><path aria-label="month: 2021-10; estimatedIncomeDollar: 1141" role="graphics-symbol" aria-roledescription="bar" d="M482.8862745098039,97.84615384615387h18.070588235294117v702.1538461538462h-18.070588235294117Z" fill="#4c78a8"/><path aria-label="month: 2021-11; estimatedIncomeDollar: 1141" role="graphics-symbol" aria-roledescription="bar" d="M502.9647058823529,97.84615384615387h18.070588235294117v702.1538461538462h-18.070588235294117Z" fill="#4c78a8"/><path aria-label="month: 2021-12; estimatedIncomeDollar: 1141" role="graphics-symbol" aria-roledescription="bar" d="M523.0431372549019,97.84615384615387h18.070588235294117v702.1538461538462h-18.070588235294117Z" fill="#4c78a8"/><path aria-label="month: 2022-01; estimatedIncomeDollar: 1159" role="graphics-symbol" aria-roledescription="bar" d="M543.121568627451,86.7692307692308h18.070588235294117v713.2307692307692h-18.070588235294117Z" fill="#4c78a8"/><path aria-label="month: 2022-02; estimatedIncomeDollar: 1159" role="graphics-symbol" aria-roledescription="bar" d="M563.2,86.7692307692308h18.070588235294117v713.2307692307692h-18.070588235294117Z" fill="#4c78a8"/><path aria-label="month: 2022-03; estimatedIncomeDollar: 1159" role="graphics-symbol" aria-roledescription="bar" d="M583.278431372549,86.7692307692308h18.070588235294117v713.2307692307692h-18.070588235294117Z" fill="#4c78a8"/><path aria-label="month: 2022-04; estimatedIncomeDollar: 1164" role="graphics-symbol" aria-roledescription="bar" d="M603.356862745098,83.69230769230774h18.070588235294117v716.3076923076923h-18.070588235294117Z" fill="#4c78a8"/><path aria-label="month: 2022-05; estimatedIncomeDollar: 1165" role="graphics-symbol" aria-roledescription="bar" d="M623.435294117647,83.07692307692305h18.070588235294117v716.9230769230769h-18.070588235294117Z" fill="#4c78a8"/><path aria-label="month: 2022-06; estimatedIncomeDollar: 1165" role="graphics-symbol" aria-roledescription="bar" d="M643.5137254901961,83.07692307692305h18.070588235294117v716.9230769230769h-18.070588235294117Z" fill="#4c78a8"/><path aria-label="month: 2022-07; estimatedIncomeDollar: 1166" role="graphics-symbol" aria-roledescription="bar" d="M663.5921568627451,82.46153846153845h18.070588235294117v717.5384615384615h-18.070588235294117Z" fill="#4c78a8"/><path aria-label="month: 2022-08; estimatedIncomeDollar: 1167" role="graphics-symbol" aria-roledescription="bar" d="M683.6705882352941,81.84615384615385h18.070588235294117v718.1538461538462h-18.070588235294117Z" fill="#4c78a8"/><path aria-label="month: 2022-09; estimatedIncomeDollar: 1177" role="graphics-symbol" aria-roledescription="bar" d="M703.7490196078431,75.69230769230772h18.070588235294117v724.3076923076923h-18.070588235294117Z" fill="#4c78a8"/><path aria-label="month: 2022-10; estimatedIncomeDollar: 1180" role="graphics-symbol" aria-roledescription="bar" d="M723.8274509803921,73.84615384615385h18.070588235294117v726.1538461538462h-18.070588235294117Z" fill="#4c78a8"/><path aria-label="month: 2022-11; estimatedIncomeDollar: 1185" role="graphics-symbol" aria-roledescription="bar" d="M743.9058823529411,70.76923076923079h18.070588235294117v729.2307692307692h-18.070588235294117Z" fill="#4c78a8"/><path aria-label="month: 2022-12; estimatedIncomeDollar: 1202" role="graphics-symbol" aria-roledescription="bar" d="M763.9843137254902,60.30769230769231h18.070588235294117v739.6923076923077h-18.070588235294117Z" fill="#4c78a8"/><path aria-label="month: 2023-01; estimatedIncomeDollar: 1204" role="graphics-symbol" aria-roledescription="bar" d="M784.0627450980392,59.076923076923116h18.070588235294117v740.9230769230769h-18.070588235294117Z" fill="#4c78a8"/><path aria-label="month: 2023-02; estimatedIncomeDollar: 1207" role="graphics-symbol" aria-roledescription="bar" d="M804.1411764705882,57.23076923076924h18.070588235294117v742.7692307692307h-18.070588235294117Z" fill="#4c78a8"/><path aria-label="month: 2023-03; estimatedIncomeDollar: 1208" role="graphics-symbol" aria-roledescription="bar" d="M824.2196078431373,56.61538461538464h18.070588235294117v743.3846153846154h-18.070588235294117Z" fill="#4c78a8"/><path aria-label="month: 2023-04; estimatedIncomeDollar: 1213" role="graphics-symbol" aria-roledescription="bar" d="M844.2980392156862,53.538461538461576h18.070588235294117v746.4615384615385h-18.070588235294117Z" fill="#4c78a8"/><path aria-label="month: 2023-05; estimatedIncomeDollar: 1223" role="graphics-symbol" aria-roledescription="bar" d="M864.3764705882353,47.38461538461536h18.070588235294117v752.6153846153846h-18.070588235294117Z" fill="#4c78a8"/><path aria-label="month: 2023-06; estimatedIncomeDollar: 1238" role="graphics-symbol" aria-roledescription="bar" d="M884.4549019607844,38.15384615384616h18.070588235294117v761.8461538461538h-18.070588235294117Z" fill="#4c78a8"/><path aria-label="month: 2023-07; estimatedIncomeDollar: 1244" role="graphics-symbol" aria-roledescription="bar" d="M904.5333333333333,34.461538461538495h18.070588235294117v765.5384615384615h-18.070588235294117Z" fill="#4c78a8"/><path aria-label="month: 2023-08; estimatedIncomeDollar: 1244" role="graphics-symbol" aria-roledescription="bar" d="M924.6117647058824,34.461538461538495h18.070588235294117v765.5384615384615h-18.070588235294117Z" fill="#4c78a8"/><path aria-label="month: 2023-09; estimatedIncomeDollar: 1244" role="graphics-symbol" aria-roledescription="bar" d="M944.6901960784313,34.461538461538495h18.070588235294117v765.5384615384615h-18.070588235294117Z" fill="#4c78a8"/><path aria-label="month: 2023-10; estimatedIncomeDollar: 1248" role="graphics-symbol" aria-roledescription="bar" d="M964.7686274509804,32.00000000000003h18.070588235294117v768h-18.070588235294117Z" fill="#4c78a8"/><path aria-label="month: 2023-11; estimatedIncomeDollar: 1267" role="graphics-symbol" aria-roledescription="bar" d="M984.8470588235294,20.30769230769227h18.070588235294117v779.6923076923077h-18.070588235294117Z" fill="#4c78a8"/><path aria-label="month: 2023-12; estimatedIncomeDollar: 1268" role="graphics-symbol" aria-roledescription="bar" d="M1004.9254901960784,19.692307692307676h18.070588235294117v780.3076923076924h-18.070588235294117Z" fill="#4c78a8"/></g></g><path class="foreground" aria-hidden="true" d="" display="none"/></g></g></g></svg>