<?xml version="1.0" encoding="UTF-8" standalone="no"?>
<svg
  xmlns="http://www.w3.org/2000/svg"
  version="1.1"
  width="512"
  height="512"
  viewBox="0 0 512 512">
  <path
    d="M 256 64 C 150.13739 64 64 150.10614 64 255.96875 C 64 361.83136 150.13739 448 256 448 C 361.86261 448 447.96875 361.83136 447.96875 255.96875 C 447.96875 150.10614 361.86261 64 256 64 z M 256 93.71875 C 345.79584 93.71875 418.25 166.17291 418.25 255.96875 C 418.25 345.76459 345.79584 418.28125 256 418.28125 C 166.20416 418.28125 93.71875 345.76459 93.71875 255.96875 C 93.71875 166.17291 166.20416 93.71875 256 93.71875 z M 240 112 L 240 265.21875 L 331.125 317.84375 L 347.125 290.15625 L 272 246.78125 L 272 112 L 240 112 z "
    style="fill:#ffffff"/>
</svg>
