<?xml version="1.0" encoding="UTF-8" standalone="no"?>
<svg
  xmlns="http://www.w3.org/2000/svg"
  version="1.1"
  width="512"
  height="512"
  viewBox="0 0 512 512">
  <path
    d="m 112,64 c -24,0 -48,24 -48,48 0,24 24,48 48,48 24,0 36,-12 41.5625,-24 L 448,136 448,88 153.5625,88 C 148,76 136,64 112,64 z m 0,24 c 12,0 24,12 24,24 0,12 -12,24 -24,24 -12,0 -24,-12 -24,-24 0,-12 12,-24 24,-24 z m 144,120 c -24,0 -36,12 -41.59375,24 L 64,232 l 0,48 150.40625,0 C 220,292 232,304 256,304 c 24,0 36,-12 41.5625,-24 L 448,280 l 0,-48 -150.4375,0 C 292,220 280,208 256,208 z m 0,24 c 12,0 24,12 24,24 0,12 -12,24 -24,24 -12,0 -24,-12 -24,-24 0,-12 12,-24 24,-24 z m 144,120 c -17.76626,0 -33.29414,9.6534 -41.59375,24 L 64,376 l 0,48 294.40625,0 c 8.29961,14.3464 23.82749,24 41.59375,24 26.50967,0 48,-21.4903 48,-48 0,-26.50972 -21.49033,-48 -48,-48 z m 0,24 c 13.25484,0 24,10.74508 24,24 0,13.2547 -10.74516,24 -24,24 -13.25484,0 -24,-10.7453 -24,-24 0,-13.25492 10.74516,-24 24,-24 z"
    style="fill:#ffffff"/>
</svg>
