<?xml version="1.0" encoding="UTF-8" standalone="no"?>
<svg
  xmlns="http://www.w3.org/2000/svg"
  version="1.1"
  width="512"
  height="512"
  viewBox="0 0 512 512">
  <path
    d="m 256,64.000005 -29.53846,59.076925 59.07692,0 z m -139.03847,52.961545 20.88462,62.66104 41.77643,-41.77643 z m 278.07693,0 -62.66104,20.88461 41.77643,41.77643 z M 256,137.84616 c -59.07692,4e-5 -118.15385,59.07696 -118.15385,118.15385 0,59.07696 59.07693,118.15389 118.15385,118.15385 59.07692,4e-5 118.15385,-59.07689 118.15385,-118.15385 0,-59.07689 -59.07693,-118.15381 -118.15385,-118.15385 z m -132.92308,88.61539 -59.076927,29.53846 59.076927,29.53846 z m 265.84616,0 0,59.07692 L 448,256.00001 Z m -251.07693,105.91588 -20.88462,62.66104 62.66105,-20.88461 z m 236.3077,0 -41.77643,41.77643 62.66104,20.88461 z M 226.46154,388.92309 256,448.00001 285.53846,388.92309 Z"
    style="fill:#ffffff"/>
</svg>
