<?xml version="1.0" encoding="UTF-8" standalone="no"?>
<svg
  xmlns="http://www.w3.org/2000/svg"
  version="1.1"
  width="512"
  height="512"
  viewBox="0 0 512 512">
  <path
    d="m 256,64 c -32,0 -64,32 -64,64 0,26.6147 22.13907,53.20983 48,61.41406 l 0,2.58594 -112,0 -32,256 320,0 -32,-256 -112,0 0,-2.58594 C 297.86093,181.20983 320,154.6147 320,128 320,96 288,64 256,64 Z m 0,16 c 24,0 48,24 48,48 0,22.23161 -15.13394,39.40641 -33.38086,45.54492 C 268.13563,167.91233 262.15579,164.00806 256,164 c -6.02931,0.009 -11.89893,3.74326 -14.46094,9.20117 C 223.22146,166.20784 208,147.11073 208,128 c 0,-24 24,-48 48,-48 z"
    style="fill:#ffffff"/>
</svg>
