<?xml version="1.0" encoding="UTF-8" standalone="no"?>
<svg
  xmlns="http://www.w3.org/2000/svg"
  version="1.1"
  width="512"
  height="512"
  viewBox="0 0 512 512">
  <path
    d="M 256,448 C 150,448 64,362 64,256 64,150 150,64 256,64 362,64 448,150 448,256 448,362 362,448 256,448 z M 418,282 c -6,-2 -51,-15 -102,-7 21,59 30,107 32,117 37,-25 63,-64 70,-110 z M 320,407 C 318,393 308,343 285,283 231,301 182,337 155,386 c 28,22 63,35 101,35 23,0 44,-5 64,-13 z M 134,366 c 4,-8 48,-82 140,-110 -4,-9 -9,-19 -13,-28 -82,25 -161,23 -169,23 -3,42 17,88 42,115 z M 95,223 c 7,0 75,0 152,-20 -27,-48 -56,-89 -61,-95 -46,22 -80,64 -91,115 z M 218,97 C 222,103 252,143 279,193 337,171 362,138 365,134 336,108 298,92 256,92 c -13,0 -26,2 -38,5 z M 383,153 c -3,5 -31,40 -92,65 6,11 10,22 14,32 55,-7 109,4 114,5 -0,-39 -14,-74 -37,-102 z"
    style="fill:#ffffff"/>
</svg>
