<?xml version="1.0" encoding="UTF-8" standalone="no"?>
<svg
  xmlns="http://www.w3.org/2000/svg"
  version="1.1"
  width="512"
  height="512"
  viewBox="0 0 512 512">
  <path
    d="m 420.02455,354.77865 -99.60115,-98.53796 99.59726,-98.53797 v 197.07593 z m -311.06513,18.71317 99.78039,-98.44549 4.26255,4.03225 c 23.56094,22.20628 61.0005,22.20628 83.55619,0 l 4.29373,-4.21326 100.24015,98.6265 H 108.95942 z m -17.89961,-215.7891 99.44921,98.53797 -99.62844,98.53796 0.17923,-197.07593 z M 400.9093,138.89709 278.3862,259.91094 c -12.44868,12.39715 -34.73163,12.12371 -47.54657,-0.48141 L 109.14255,138.89709 H 400.9093 z M 64,112 c 0,11.28414 0,276.62725 0,288 11.59929,0 372.40071,0 384,0 0,-11.37275 0,-276.7197 0,-288 -11.59929,0 -372.40071,0 -384,0 z"
    style="fill:#ffffff"/>
</svg>
