<?xml version="1.0" encoding="UTF-8" standalone="no"?>
<svg
  xmlns="http://www.w3.org/2000/svg"
  version="1.1"
  width="512"
  height="512"
  viewBox="0 0 512 512">
  <path
    d="M 350.91219,71.614712 C 340.53238,69.394135 330.69668,67.581123 321.40507,66.175623 312.11313,64.770925 302.0055,64.045698 291.08215,64 c -31.8188,0.13635 -54.79897,7.479112 -68.94053,22.02831 -14.14167,14.54991 -21.07653,35.49043 -20.80449,62.82154 l 0,39.70536 -40.24932,0 0,64.18134 40.24932,0 0,195.26345 78.32293,0 0,-195.26345 57.11046,0 5.43913,-64.18134 -62.54959,0 0,-31.00281 c -0.45338,-8.7929 0.86105,-15.68239 3.94335,-20.66856 3.08201,-4.98552 10.6514,-7.52376 22.70821,-7.61472 4.8157,0.0227 10.41343,0.38559 16.79319,1.0878 6.37942,0.70287 12.38509,1.60939 18.017,2.71955 z"
    style="fill:#ffffff"/>
</svg>
