<?xml version="1.0" encoding="UTF-8" standalone="no"?>
<svg
  xmlns="http://www.w3.org/2000/svg"
  version="1.1"
  width="512"
  height="512"
  viewBox="0 0 512 512">
  <path
    d="M 64 64 L 64 136 C 236.31284 136 376 275.68716 376 448 L 448 448 C 448 235.92266 276.07734 64 64 64 z M 64 208 L 64 280 C 156.78384 280 232 355.21616 232 448 L 304 448 C 304 315.45166 196.54834 208 64 208 z M 112 352 C 85.490332 352 64 373.49033 64 400 C 64 426.50967 85.490332 448 112 448 C 138.50967 448 160 426.50967 160 400 C 160 373.49033 138.50967 352 112 352 z"
    style="fill:#ffffff"/>
</svg>
