<?xml version="1.0" encoding="UTF-8" standalone="no"?>
<svg
  xmlns="http://www.w3.org/2000/svg"
  version="1.0"
  width="512"
  height="512"
  viewBox="0 0 512 512">
  <path
    d="m 136,152 c -39.764502,0 -72,32.2355 -72,72 0,39.7645 32.235498,72 72,72 0.15654,0 0.31245,10e-4 0.46875,0 0.96985,-0.006 1.94586,-0.0496 2.90625,-0.0937 -0.96669,0.047 -1.92936,0.0875 -2.90625,0.0937 3.97672,36.0026 34.46868,64 71.53125,64 37.43841,0 68.18512,-28.56426 71.65625,-65.09375 C 283.6701,295.6003 287.78782,296 292,296 c 7.66469,0 15.04045,-1.21912 21.96875,-3.4375 C 326.49546,313.77485 349.58113,328 376,328 c 39.7645,0 72,-32.2355 72,-72 0,-39.7645 -32.2355,-72 -72,-72 -7.66469,0 -15.04045,1.21912 -21.96875,3.4375 C 341.50454,166.22515 318.41887,152 292,152 254.56159,152 223.81488,180.56426 220.34375,217.09375 216.3299,216.3997 212.21218,216 208,216 c -0.15654,0 -0.31245,-0.001 -0.46875,0 C 203.55453,179.9974 173.06257,152 136,152 z m 0,16 c 30.92795,0 56,25.07205 56,56 0,30.92795 -25.07205,56 -56,56 -30.92795,0 -56,-25.07205 -56,-56 0,-30.92795 25.07205,-56 56,-56 z m 156,0 c 30.92795,0 56,25.07205 56,56 0,30.92795 -25.07205,56 -56,56 -30.92795,0 -56,-25.07205 -56,-56 0,-30.92795 25.07205,-56 56,-56 z m -176,24 c -6.62742,0 -12,5.37258 -12,12 0,6.62742 5.37258,12 12,12 6.62742,0 12,-5.37258 12,-12 0,-6.62742 -5.37258,-12 -12,-12 z m 40,0 c -6.62742,0 -12,5.37258 -12,12 0,6.62742 5.37258,12 12,12 6.62742,0 12,-5.37258 12,-12 0,-6.62742 -5.37258,-12 -12,-12 z m 116,0 c -6.62742,0 -12,5.37258 -12,12 0,6.62742 5.37258,12 12,12 6.62742,0 12,-5.37258 12,-12 0,-6.62742 -5.37258,-12 -12,-12 z m 40,0 c -6.62742,0 -12,5.37258 -12,12 0,6.62742 5.37258,12 12,12 6.62742,0 12,-5.37258 12,-12 0,-6.62742 -5.37258,-12 -12,-12 z m 64,8 c 30.92795,0 56,25.07205 56,56 0,30.92795 -25.07205,56 -56,56 -19.91053,0 -37.38281,-10.40767 -47.3125,-26.0625 14.61096,-8.67058 25.86313,-22.3527 31.4375,-38.6875 4.58488,-1.68758 7.875,-6.07946 7.875,-11.25 0,-3.58417 -1.57113,-6.80116 -4.0625,-9 0.0406,-0.99239 0.0625,-1.99764 0.0625,-3 0,-7.61945 -1.21295,-14.95099 -3.40625,-21.84375 C 365.4885,200.75856 370.65656,200 376,200 z m 20,24 c -6.62742,0 -12,5.37258 -12,12 0,6.62742 5.37258,12 12,12 6.62742,0 12,-5.37258 12,-12 0,-6.62742 -5.37258,-12 -12,-12 z m -188.46875,8 c 0.1572,-0.001 0.31124,0 0.46875,0 4.35452,0 8.58753,0.49711 12.65625,1.4375 1.05037,8.02257 3.37734,15.62765 6.84375,22.59375 -6.39201,0.26596 -11.5,5.51136 -11.5,11.96875 0,6.62742 5.37258,12 12,12 4.94592,0 9.19452,-3.00834 11.03125,-7.28125 6.91291,7.51311 15.3642,13.58456 24.90625,17.625 C 262.70462,320.18076 238.13996,344 208,344 c -28.86552,0 -52.61514,-21.8494 -55.65625,-49.90625 11.39603,-2.6471 21.76873,-7.96727 30.375,-15.3125 C 184.31456,279.56626 186.10142,280 188,280 c 6.62742,0 12,-5.37258 12,-12 0,-2.59907 -0.84578,-5.00402 -2.25,-6.96875 5.20233,-8.65964 8.61839,-18.50346 9.78125,-29.03125 z"
    style="fill:#ffffff"/>
</svg>
