<?xml version="1.0" encoding="UTF-8" standalone="no"?>
<svg
  xmlns="http://www.w3.org/2000/svg"
  version="1.1"
  width="512"
  height="512"
  viewBox="0 0 512 512">
  <path
    d="M 440.7711,238.88058 273.09541,71.243295 c -9.63852,-9.65773 -25.30591,-9.65773 -34.96363,0 l -34.82924,34.810025 44.16055,44.16055 c 10.25293,-3.47524 22.02268,-1.15201 30.20198,7.04649 8.2177,8.2177 10.54093,20.10265 6.96969,30.39398 l 42.58613,42.56693 c 10.29133,-3.55203 22.17627,-1.24801 30.39398,6.9889 11.50094,11.48174 11.50094,30.10597 0,41.60692 -11.50095,11.50094 -30.12518,11.50094 -41.62612,0 -8.64011,-8.65931 -10.79054,-21.35067 -6.39368,-32.0068 l -39.7061,-39.7061 0,104.4493 c 2.80324,1.38243 5.45287,3.24484 7.7761,5.56808 11.50095,11.48173 11.50095,30.10598 0,41.60691 -11.50094,11.50094 -30.12518,11.50094 -41.60692,0 -11.50094,-11.50094 -11.50094,-30.12518 0,-41.60691 2.82244,-2.82245 6.10568,-4.99207 9.61932,-6.41288 V 205.29936 c -3.49444,-1.44002 -6.75848,-3.57124 -9.60012,-6.43208 -8.69771,-8.69771 -10.80973,-21.48507 -6.35528,-32.1604 L 186.19513,123.16073 71.243295,238.13177 c -9.65773,9.65772 -9.65773,25.30593 0,34.96364 l 167.656495,167.6757 c 9.65772,9.63852 25.30591,9.63852 34.98283,0 L 440.7711,273.88262 c 9.63853,-9.65772 9.63853,-25.34432 0,-35.00204 z"
    style="fill:#ffffff"/>
</svg>
