<?xml version="1.0" encoding="UTF-8" standalone="no"?>
<svg
  xmlns="http://www.w3.org/2000/svg"
  version="1.1"
  width="512"
  height="512"
  viewBox="0 0 512 512">
  <path
    d="m 512,250 0,-2 c -42.1583,-8.42716 -85.8273,-9.08739 -112,-8 4.2994,-15.48701 6,-32.12834 6,-52 0,-28.50036 -10.6115,-52.65067 -28,-70 3.0385,-9.80532 7.1503,-30.123134 -4,-58 0,0 -19.5039,-7.771661 -64,22 -17.4305,-4.354914 -35.4223,-6 -54,-6 -20.4406,0 -42.7364,2.717302 -62,8 -45.91662,-31.314814 -66,-24 -66,-24 -13.23113,33.07707 -4.48523,55.91799 -2,62 -15.55131,16.7786 -26,39.74067 -26,66 0,19.82434 2.48568,36.54277 8,52 -26.39597,-0.96023 -67.34607,-0.12692 -108,8 l 0,2 c 40.8988,-8.17695 83.76502,-8.99273 110,-8 1.21488,3.1999 2.48207,7.00025 4,10 -25.94411,0.83582 -71.54539,4.0267 -114,16 l 2,2 c 42.79011,-12.06128 86.30754,-15.21422 112,-16 15.50126,28.88583 45.63062,46.14111 100,52 -7.7168,5.184 -14.80992,15.08921 -18,30 -10.51591,5.02845 -44.0275,16.34159 -64,-18 0,0 -10.6002,-20.39999 -32,-22 0,0 -21.32584,0.74999 -2,14 0,0 14.41623,5.41089 24,30 0.29814,0 11.66985,43.45554 72,30 l 0,42 c -0.29814,0 0.0523,14.89448 -14,20 0,0 -8.94521,6.81228 0,10 0.0316,0 38,3.91674 38,-28 l 0,-48 c 0.33866,0 -1.20632,-17.48791 8,-24 l 0,76 c -0.37026,0 -0.42028,18.97667 -10,26 0,0 -6.05097,11.18772 8,8 0,0 26.72153,-4.71907 28,-36 l 0,-78 8,0 0,78 c 1.2758,31.28093 28,36 28,36 14.0469,3.18772 8,-8 8,-8 -9.9609,-7.02333 -10,-26 -10,-26 l 0,-76 c 9.5395,7.16269 8,24 8,24 l 0,48 c 0.0438,31.91804 38,28 38,28 8.9371,-3.18782 0,-10 0,-10 -14.3613,-5.10552 -14,-20 -14,-20 l 0,-62 c 0.3103,-24.14683 -10.0536,-37.24988 -20,-44 57.983,-5.74792 85.1788,-22.91946 98,-52 25.3975,0.69787 70.2805,3.67101 114,16 l 2,-2 c -43.4692,-12.25733 -90.3454,-15.25345 -116,-16 1.2149,-2.93753 3.0584,-6.85689 4,-10 41.32509,0.50947 78.07445,1.15351 112,8 z"
    style="fill:#ffffff"/>
</svg>
