<?xml version="1.0" encoding="UTF-8" standalone="no"?>
<svg
  xmlns="http://www.w3.org/2000/svg"
  version="1.1"
  width="512"
  height="512"
  viewBox="0 0 512 512">
  <path
    d="m 272.59375,64 c -22.08859,7.80265 -27.65843,19.72881 -29.3125,30.53125 -5.68205,-4.06696 -5.06093,-17.32809 -5.375,-20.71875 -5.64565,0.6741 -21.87587,16.426911 -21.15625,36.25 -1.48904,0.40473 -2.94697,0.82741 -4.40625,1.28125 -4.74367,-6.44486 -18.66063,-23.52398 -37,-29.4375 -6.04657,-1.95324 -12.13056,-2.9375 -18.0625,-2.9375 -21.76076,0 -34.57632,12.96079 -34.6875,13.09375 l -6.125,7.125 9.1875,1.8125 c 0.15131,0.0309 15.45041,3.22329 21.78125,13.21875 1.04998,1.66094 1.36395,4.9818 1.65625,8.46875 0.17882,2.0736 -0.30036,4.07572 -0.71875,6.03125 -0.317,1.45947 -0.59107,2.91616 -0.65625,4.40625 -5.75041,0.20846 -10.70155,1.33409 -14.6875,3.375 -5.40237,2.76365 -9.04254,7.17569 -10.5625,12.75 -3.72537,13.66467 8.3987,28.88898 8.8125,29.375 1.4145,2.52523 2.01802,20.84565 -1.25,28.1875 -0.44933,1.0133 -1.65868,1.9914 -3.21875,3.25 -0.48831,0.39546 -1.07738,0.84223 -1.65625,1.28125 -4.61029,3.48007 -11.5625,8.72425 -11.5625,20.84375 0,16.58307 16.80602,25.58298 30.3125,32.8125 2.21574,1.19211 4.33802,2.33594 6.25,3.4375 2.01743,1.16576 9.15166,8.54227 9.15625,19.5625 0,5.16299 -0.48769,29.68007 -2.78125,46.71875 -8.67001,-7.42636 -16.67481,-19.33209 -18.46875,-32.75 0,0 -21.91078,16.91667 -15.46875,53.125 3.93894,22.1492 17.384,34.54255 35.25,41.03125 6.59621,14.30492 22.01713,34.28449 50.4375,37.21875 10.8337,8.87432 25.80145,14.6383 47.65625,14.65625 l 0.0937,0 0.0312,0 c 21.85274,-0.0189 36.82286,-5.78212 47.65625,-14.65625 28.44994,-2.9294 43.87988,-22.93943 50.46875,-37.25 17.84328,-6.49309 31.28004,-18.86884 35.21875,-41 6.44203,-36.20833 -15.46875,-53.125 -15.46875,-53.125 -1.79332,13.40722 -9.77584,25.32229 -18.4375,32.75 -2.29648,-17.03868 -2.78553,-41.55576 -2.78125,-46.71875 0,-11.02023 7.13767,-18.39674 9.15625,-19.5625 1.90625,-1.10156 4.00072,-2.24539 6.21875,-3.4375 13.5019,-7.22952 30.3125,-16.22943 30.3125,-32.8125 0,-12.1195 -6.95106,-17.36368 -11.5625,-20.84375 -0.58345,-0.43902 -1.13669,-0.88579 -1.625,-1.28125 -1.56351,-1.2586 -2.80067,-2.2367 -3.25,-3.25 -3.26343,-7.34185 -2.66449,-25.66227 -1.25,-28.1875 0.41381,-0.48602 12.56912,-15.71033 8.84375,-29.375 -1.52225,-5.57431 -5.19024,-9.98635 -10.59375,-12.75 -4.23323,-2.16528 -9.54386,-3.30527 -15.75,-3.40625 -0.16115,-3.31773 -1.69382,-6.72784 -1.375,-10.53125 0.30491,-3.62336 0.58569,-7.02064 1.78125,-8.90625 6.6495,-10.49868 22.33838,-13.68551 22.5,-13.71875 L 393.5,98.5 388.625,92.75 C 387.99347,92.01181 367.97218,72.93974 337,82.9375 c -17.60547,5.67902 -31.34743,22.20938 -36.25,28.78125 -2.71811,-0.87331 -5.4906,-1.67397 -8.3125,-2.375 -3.13861,-11.85032 6.75,-28.84375 6.75,-28.84375 0,0 -10.16625,-2.253529 -25.25,11.4375 C 271.9854,87.06586 267.8631,76.54706 272.59375,64 z M 240,191.40625 c 0.20928,0.12663 0.41696,0.25301 0.625,0.375 -0.0444,0.0635 -0.0827,0.12253 -0.125,0.1875 -0.29805,-0.34225 -0.5,-0.5625 -0.5,-0.5625 z m 41,0 c 0,0 -0.27159,0.31114 -0.65625,0.75 -0.0618,-0.086 -0.15132,-0.16521 -0.21875,-0.25 0.28701,-0.16626 0.58565,-0.32489 0.875,-0.5 z"
    style="fill:#ffffff"/>
</svg>
