<?xml version="1.0" encoding="UTF-8" standalone="no"?>
<svg
  xmlns="http://www.w3.org/2000/svg"
  version="1.1"
  width="512"
  height="512"
  viewBox="0 0 512 512">
  <path
    d="M 222.07062,79.844828 80.847103,224.4961 c -53.47298,53.47298 34.620327,49.0169 66.498457,69.24066 14.73934,9.59771 -47.30303,21.93763 -34.62033,34.62032 12.33992,12.6827 74.38229,24.33707 86.72221,36.67698 12.33991,12.6827 -25.02262,26.05094 -12.6827,38.73364 11.99715,12.68269 40.79029,0.68555 45.93192,29.47869 3.77053,21.25208 52.78743,10.62604 74.72507,-7.54106 13.71102,-11.65437 -23.65152,-11.65437 -11.3116,-24.33706 30.8498,-31.19257 58.27184,-14.0538 69.58343,-42.84694 6.16996,-15.4249 -46.61747,-26.39371 -32.56367,-36.3342 33.592,-23.65151 156.99118,-35.64866 100.09045,-92.54939 L 286.85519,79.844828 c -18.1671,-17.13877 -47.98857,-17.13877 -64.78457,0 z M 384.20344,358.52133 c 0,7.19828 55.87241,11.31159 52.78743,-1.71388 -4.45608,-21.93763 -46.61747,-20.22375 -52.78743,1.71388 z m -238.22899,38.04808 c 12.6827,10.96882 31.87813,-2.39943 38.04809,-17.82433 -12.33992,-16.11044 -57.92907,1.02833 -38.04809,17.82433 z m 231.37348,-22.96596 c -15.76767,14.39657 2.7422,29.4787 18.1671,19.53821 4.11331,-2.74221 -0.34277,-16.11045 -18.1671,-19.53821 z"
    style="fill:#ffffff"/>
</svg>
