<?xml version="1.0" encoding="UTF-8" standalone="no"?>
<svg
  xmlns="http://www.w3.org/2000/svg"
  version="1.1"
  width="512"
  height="512"
  viewBox="0 0 512 512">
  <path
    d="m 0,256.00001 c 0,85.07286 69.044597,154.11749 154.1174,154.11749 48.19333,0 91.27127,-22.23347 119.55107,-56.9134 l -22.18351,-46.89575 c -18.15975,34.73457 -55.45392,58.45458 -97.36756,58.45458 -60.071791,0 -108.872931,-48.6911 -108.872931,-108.76292 0,-58.9041 49.633409,-108.87302 108.872931,-108.87302 41.88494,0 81.50676,22.57834 100.89936,66.98391 13.70599,31.38416 33.47733,77.28269 57.54907,130.54443 23.96177,53.0185 65.1027,64.14117 105.09232,64.14117 C 446.75649,408.79645 512,385.81125 512,315.77558 c 0,-49.316 -28.6137,-67.38961 -56.25285,-76.94867 -20.31281,-7.02527 -31.90258,-10.30079 -59.44527,-20.5857 -16.61633,-6.20478 -28.40163,-17.08425 -28.40163,-36.43778 -5e-5,-41.16589 58.53315,-46.62842 84.32422,-12.65965 l 32.6949,-17.61343 c -14.93998,-24.37575 -33.05128,-44.58399 -77.38895,-44.58399 -45.48056,0 -80.47129,27.97703 -80.47129,76.7285 0,44.78457 27.62218,62.58361 57.9041,75.4075 19.04466,8.065 42.68092,16.35953 62.85788,23.99828 39.25592,14.86183 20.58936,82.34277 -33.35541,82.34277 -36.99815,0 -53.13212,-17.21645 -60.71251,-33.78019 C 337.07965,295.21049 308.47329,230.4279 290.07744,187.16626 270.45385,141.01732 220.25699,101.8825 154.1174,101.8825 70.850502,101.8825 0,170.70771 0,256.00001 z"
    style="fill:#ffffff"/>
</svg>
