<?xml version="1.0" encoding="UTF-8" standalone="no"?>
<svg
  xmlns="http://www.w3.org/2000/svg"
  version="1.1"
  width="512"
  height="512"
  viewBox="0 0 512 512">
  <path
    d="M 80 96 A 16 16 0 0 0 64 112 L 64 144 A 16 16 0 0 0 80 160 L 432 160 A 16 16 0 0 0 448 144 L 448 112 A 16 16 0 0 0 432 96 L 80 96 z M 80 224 A 16 16 0 0 0 64 240 L 64 272 A 16 16 0 0 0 80 288 L 432 288 A 16 16 0 0 0 448 272 L 448 240 A 16 16 0 0 0 432 224 L 80 224 z M 80 352 A 16 16 0 0 0 64 368 L 64 400 A 16 16 0 0 0 80 416 L 432 416 A 16 16 0 0 0 448 400 L 448 368 A 16 16 0 0 0 432 352 L 80 352 z"
    style="fill:#ffffff"/>
</svg>
