<?xml version="1.0" encoding="UTF-8" standalone="no"?>
<svg
  xmlns="http://www.w3.org/2000/svg"
  version="1.1"
  width="512"
  height="512"
  viewBox="0 0 512 512">
  <path
    d="m 359.29483,341.78724 c 26.16378,-0.70509 47.36741,-9.21576 63.61095,-25.53192 16.24276,-16.31599 24.60749,-36.20654 25.09422,-59.67173 -0.41378,-25.81135 -8.19492,-46.55298 -23.34348,-62.22495 -15.1493,-15.67149 -35.18574,-23.7201 -60.10943,-24.14588 -23.59909,0.71761 -43.95165,7.30724 -61.05777,19.76896 -17.1066,12.46221 -32.93639,26.49262 -47.48932,42.09124 -13.84824,-14.83261 -29.19166,-28.64417 -46.03042,-41.43469 -16.83904,-12.79004 -36.12168,-19.59855 -57.848,-20.42551 -25.88459,0.68106 -46.91801,9.2404 -63.100305,25.67781 C 72.838857,212.32848 64.498446,232.55946 64,256.58359 c 0.413339,25.25241 8.194472,45.6536 23.343441,61.20367 15.148889,15.55023 35.185339,23.55017 60.109429,23.99998 23.59864,-0.72941 43.9512,-7.29476 61.05772,-19.69605 17.10624,-12.4011 32.93599,-26.2613 47.48941,-41.58052 13.85996,14.5533 29.1791,28.19461 45.95743,40.92401 16.77785,12.72953 35.89027,19.51373 57.3374,20.35256 z m 1.16714,-34.4316 c -17.02157,-0.8388 -32.00029,-6.74765 -44.93614,-17.72643 -12.93642,-10.97862 -24.9972,-21.9938 -36.18239,-33.04562 11.05145,-12.12141 23.37967,-23.62291 36.98479,-34.50455 13.6046,-10.88128 28.70489,-16.69282 45.30093,-17.43464 14.57717,0.30437 26.41911,5.24032 35.52585,14.8085 9.10601,9.56856 13.799,21.94545 14.079,37.13069 -0.32867,14.11565 -5.21615,26.00622 -14.6626,35.67175 -9.44717,9.6657 -21.48364,14.6992 -36.10944,15.1003 z m -209.50758,0 c -14.85725,-0.2918 -26.8694,-5.10625 -36.03649,-14.4438 -9.16721,-9.33726 -13.88456,-21.44664 -14.15196,-36.32825 0.31612,-14.41927 5.22791,-26.57732 14.73555,-36.47414 9.50752,-9.8965 21.7142,-15.0515 36.62009,-15.46505 16.74149,0.85128 31.54999,6.88167 44.4255,18.09118 12.87522,11.20991 24.91168,22.49257 36.10944,33.84801 -11.06401,12.07311 -23.36796,23.38008 -36.91189,33.92097 -13.5442,10.54113 -28.47424,16.15818 -44.79024,16.85108 z"
    style="fill:#ffffff"/>
</svg>
