<?xml version="1.0" encoding="UTF-8" standalone="no"?>
<svg
  xmlns="http://www.w3.org/2000/svg"
  version="1.1"
  width="512"
  height="512"
  viewBox="0 0 512 512">
  <path
    d="m 265.74635,48.000001 c -113.52746,0 -170.768871,81.394349 -170.768871,149.269849 0,41.0979 15.559661,77.66034 48.932141,91.28532 5.47228,2.23723 10.374,0.077 11.961,-5.98183 1.10402,-4.19312 3.71544,-14.77146 4.88048,-19.17689 1.60029,-5.99245 0.97928,-8.09432 -3.43676,-13.31715 -9.62296,-11.35062 -15.77198,-26.04513 -15.77198,-46.85946 0,-60.38627 45.17956,-114.445708 117.64627,-114.445708 64.16803,0 99.4221,39.208348 99.4221,91.571958 0,68.89725 -30.49037,127.04629 -75.75485,127.04629 -24.99685,0 -43.70932,-20.67368 -37.71156,-46.02881 7.18138,-30.27009 21.093,-62.93929 21.093,-84.78864 0,-19.55905 -10.49873,-35.87243 -32.22601,-35.87243 -25.55415,0 -46.08188,26.43525 -46.08188,61.84855 0,22.5553 7.62194,37.80977 7.62194,37.80977 0,0 -26.15129,110.80192 -30.73453,130.20705 -9.12933,38.64573 -1.37206,86.02004 -0.71655,90.80497 0.38482,2.83435 4.02859,3.50843 5.67929,1.36675 2.35664,-3.07583 32.79128,-40.6494 43.13874,-78.19376 2.92723,-10.63143 16.80699,-65.68075 16.80699,-65.68075 8.30131,15.83567 32.56569,29.78443 58.36932,29.78443 76.81374,0 128.92789,-70.02779 128.92789,-163.76264 0,-70.87704 -60.03331,-136.886869 -151.27617,-136.886869 z"
    style="fill:#ffffff"/>
</svg>
