<?xml version="1.0" encoding="UTF-8" standalone="no"?>
<svg
  xmlns="http://www.w3.org/2000/svg"
  version="1.1"
  width="512"
  height="512"
  viewBox="0 0 512 512">
  <path
    d="m 195.86941,106 38.5393,51.70808 c -28.78863,22.05031 -46.43311,38.35464 -52.93349,48.91304 -6.50081,10.5596 -9.75111,21.73971 -9.75091,33.54037 -2e-4,12.42292 7.58383,26.24278 22.75211,41.45962 15.16784,15.21791 22.75187,31.52225 22.75212,48.91305 C 217.22829,380.84515 192.46411,406.00037 142.93592,406 117.862,406.00037 98.437598,397.92588 84.662637,381.77637 70.887444,365.62778 63.999905,343.88866 64.000001,316.559 63.999905,230.8453 107.95633,160.65904 195.86941,106 z m 213.5913,0 L 448,157.70808 c -28.78884,22.05031 -46.43331,38.35464 -52.93349,48.91304 -6.50102,10.5596 -9.75133,21.73971 -9.75091,33.54037 -4.2e-4,12.42292 7.58362,26.24278 22.75212,41.45962 15.16762,15.21791 22.75165,31.52225 22.75212,48.91305 -4.7e-4,50.31099 -24.76465,75.46621 -74.29263,75.46584 -25.07412,3.7e-4 -44.49853,-8.07412 -58.27328,-24.22363 C 284.47853,365.62778 277.59099,343.88866 277.5913,316.559 277.59099,230.8453 321.54742,160.65904 409.46071,106 z"
    style="fill:#ffffff"/>
</svg>
