<?xml version="1.0" encoding="UTF-8" standalone="no"?>
<svg
  xmlns="http://www.w3.org/2000/svg"
  version="1.1"
  width="512"
  height="512"
  viewBox="0 0 512 512">
  <path
    d="M 256 120 C 195.8607 120 146.54404 165.65068 140.375 224.15625 C 151.08576 232.32968 158.12015 245.05658 158.15625 259.5625 C 158.15625 259.5841 158.15625 259.6081 158.15625 259.625 L 163.40625 306.75 C 185.64704 288.74773 221.76412 275.25 256 275.25 C 290.41178 275.25 326.64859 288.84826 348.90625 307.03125 L 354.1875 259.625 C 354.1875 259.6082 354.1875 259.5842 354.1875 259.5625 C 354.22605 245.22044 361.12147 232.62298 371.625 224.4375 C 365.5889 165.79699 316.23568 120 256 120 z M 403.15625 218.59375 C 378.4215 218.59375 358.3776 238.62587 358.3125 263.34375 C 358.3125 263.36545 358.3125 263.38695 358.3125 263.40625 L 346.34375 370.90625 C 346.34375 389.04828 341.44931 392 359.59375 392 C 377.73337 392 376.78125 391.48819 376.78125 373.34375 L 404.75 308.21875 C 428.77873 307.37057 448 287.7023 448 263.46875 C 448 238.69545 427.92715 218.59375 403.15625 218.59375 z M 108.84375 218.8125 C 84.070444 218.8125 64 238.88294 64 263.65625 C 64 287.8898 83.221268 307.59172 107.25 308.4375 L 135.21875 373.5625 C 135.21875 391.70453 134.26422 392 152.40625 392 C 170.54828 392 165.65625 389.26703 165.65625 371.125 L 153.6875 263.59375 C 153.6875 263.57455 153.6875 263.5842 153.6875 263.5625 C 153.62244 238.84702 133.57609 218.8125 108.84375 218.8125 z M 255.84375 281.1875 C 218.35729 281.1875 185.08221 293.27282 163.8125 313.84375 L 169.6875 360 L 342.34375 360 L 348.1875 314.15625 C 326.92983 293.35882 293.52056 281.1875 255.84375 281.1875 z"
    style="fill:#ffffff"/>
</svg>
