<?xml version="1.0" encoding="UTF-8" standalone="no"?>
<svg
  xmlns="http://www.w3.org/2000/svg"
  version="1.1"
  width="512"
  height="512"
  viewBox="0 0 512 512">
  <path
    d="M 256 64 C 149.96133 64 64 149.96133 64 256 C 64 362.03867 149.96133 448 256 448 C 318.81617 448 374.5651 417.82322 409.59375 371.1875 L 358.40625 332.8125 C 335.05379 363.9026 297.87715 384 256 384 C 185.30755 384 128 326.69245 128 256 C 128 185.30755 185.30755 128 256 128 C 295.41946 128 330.67648 145.82235 354.15625 173.84375 L 304 224 L 448 224 L 448 80 L 399.5 128.5 C 364.33444 88.948983 313.08774 64 256 64 z"
    style="fill:#ffffff"/>
</svg>
