<?xml version="1.0" encoding="UTF-8" standalone="no"?>
<svg
  xmlns="http://www.w3.org/2000/svg"
  version="1.1"
  width="512"
  height="512"
  viewBox="0 0 512 512">
  <path
    d="m 205.61968,340.84391 c 11.32948,34.94443 -14.01402,77.30507 -50.95013,81.38947 -20.96166,0.37639 -12.87676,-27.2167 -4.53101,-37.56276 13.43796,-19.82017 34.852,-32.91303 55.48114,-43.82671 z M 415.40014,110.97928 c -7.79579,-29.353582 -40.04082,-42.357502 -67.5096,-45.649562 -57.15264,-7.27825 -112.38645,16.43544 -161.05688,43.970832 -37.53817,22.66239 -75.10789,52.50056 -89.586525,95.49573 -9.364651,26.8267 9.409875,52.59706 28.186025,69.90663 21.06473,20.00534 46.99296,33.95084 69.24864,52.30084 -28.38833,15.1893 -58.78548,31.47574 -76.60231,59.29222 -10.27954,18.23385 -10.22381,46.47032 9.56466,58.30238 45.42473,15.1167 96.0028,-22.36889 101.17808,-68.57916 3.80075,-14.32005 -2.16178,-32.87271 -2.41244,-43.82554 26.49611,-5.39077 58.2957,-3.40861 78.50972,16.50985 13.03925,12.20969 14.10798,35.90351 -2.74175,45.47285 -15.28454,12.08401 14.80781,3.3007 16.40001,-5.34918 16.91537,-22.19588 0.94922,-53.75649 -21.08593,-65.5905 -25.02518,-14.12395 -56.05503,-12.5623 -82.92385,-5.1281 -23.65739,-26.91532 -60.27599,-41.31225 -77.22364,-74.13265 -12.66838,-28.70726 6.24836,-58.92334 27.55852,-77.58032 33.46036,-28.8757 73.46309,-50.31652 115.59343,-63.4802 30.63762,-8.240022 65.7529,-13.648982 95.09435,1.67423 19.70672,10.7256 15.88832,37.58656 5.74289,53.83367 -25.68146,42.29194 -76.79455,65.13975 -125.23066,64.7967 -16.06009,0.48185 -30.56684,-9.27859 -41.99366,-17.5278 -3.07641,16.5659 18.54059,27.96977 32.45169,32.08169 37.30902,7.59875 77.03826,-1.12084 110.24038,-18.97478 36.0246,-21.37392 68.62865,-63.75315 58.59885,-107.81983 z"
    style="fill:#ffffff"/>
</svg>
