<?xml version="1.0" encoding="UTF-8" standalone="no"?>
<svg
  xmlns="http://www.w3.org/2000/svg"
  version="1.1"
  width="512"
  height="512"
  viewBox="0 0 512 512">
  <path
    d="M 208,64 C 189.1107,64 170.3577,67.740136 152.90625,74.96875 135.4548,82.197364 119.54426,92.830746 106.1875,106.1875 92.830738,119.54425 82.197376,135.4548 74.96875,152.90625 67.740124,170.3577 64,189.11069 64,208 c 0,18.88931 3.740124,37.6423 10.96875,55.09375 7.228626,17.45145 17.861988,33.362 31.21875,46.71875 13.35676,13.35675 29.2673,23.99014 46.71875,31.21875 C 170.3577,348.25986 189.1107,352 208,352 c 18.8893,0 37.6423,-3.74014 55.09375,-10.96875 10.00477,-4.1441 19.51145,-9.40249 28.3125,-15.65625 L 414.0625,448 448,414.0625 325.375,291.40625 c 6.25376,-8.80105 11.51214,-18.30773 15.65625,-28.3125 C 348.25988,245.6423 352,226.88931 352,208 352,189.11069 348.25988,170.3577 341.03125,152.90625 333.80262,135.4548 323.16926,119.54425 309.8125,106.1875 296.45574,92.830746 280.5452,82.197364 263.09375,74.96875 245.6423,67.740136 226.8893,64 208,64 z m 0,48 c 12.52662,0 25.17691,2.51878 36.75,7.3125 11.57309,4.79372 22.26735,11.95485 31.125,20.8125 8.85765,8.85765 16.01877,19.55192 20.8125,31.125 4.79373,11.57308 7.3125,24.22338 7.3125,36.75 0,12.52662 -2.51877,25.17692 -7.3125,36.75 -4.79373,11.57308 -11.95485,22.26735 -20.8125,31.125 -8.85765,8.85765 -19.55191,16.01878 -31.125,20.8125 C 233.17691,301.48122 220.52662,304 208,304 c -12.52662,0 -25.17691,-2.51878 -36.75,-7.3125 -11.57309,-4.79372 -22.26735,-11.95485 -31.125,-20.8125 -8.85765,-8.85765 -16.01877,-19.55192 -20.8125,-31.125 C 114.51877,233.17692 112,220.52662 112,208 c 0,-12.52662 2.51877,-25.17692 7.3125,-36.75 4.79373,-11.57308 11.95485,-22.26735 20.8125,-31.125 8.85765,-8.85765 19.55191,-16.01878 31.125,-20.8125 C 182.82309,114.51878 195.47338,112 208,112 z"
    style="fill:#ffffff"/>
</svg>
