<?xml version="1.0" encoding="UTF-8" standalone="no"?>
<svg
  xmlns="http://www.w3.org/2000/svg"
  version="1.1"
  width="512"
  height="512"
  viewBox="0 0 512 512">
  <path
    d="m 336,64 c -26.50967,0 -48,21.49033 -48,48 0,3.78475 0.45311,7.46779 1.28125,11 l -147.875,95.0625 C 133.28229,211.75609 123.08067,208 112,208 c -26.509668,0 -48,21.49033 -48,48 0,26.50967 21.490332,48 48,48 12.94414,0 24.67921,-5.13888 33.3125,-13.46875 L 352.375,394.09375 C 352.13722,396.0304 352,397.99908 352,400 c 0,26.50967 21.49033,48 48,48 26.50967,0 48,-21.49033 48,-48 0,-26.50967 -21.49033,-48 -48,-48 -12.94414,0 -24.67922,5.13888 -33.3125,13.46875 L 159.625,261.90625 C 159.86278,259.9696 160,258.00092 160,256 c 0,-3.78476 -0.45311,-7.46779 -1.28125,-11 l 147.875,-95.0625 C 314.71771,156.24391 324.91933,160 336,160 c 26.50967,0 48,-21.49033 48,-48 0,-26.50967 -21.49033,-48 -48,-48 z"
    style="fill:#ffffff"/>
</svg>
