<?xml version="1.0" encoding="UTF-8" standalone="no"?>
<svg
  xmlns="http://www.w3.org/2000/svg"
  version="1.1"
  width="512"
  height="512"
  viewBox="0 0 512 512">
  <path
    d="m 256,64 c -32,0 -56,24 -56,56 -24,-24 -56,-24 -80,0 -24,24 -24,56 0,80 -32,0 -56,24 -56,56 l 0,172 c 0,16 4,20 20,20 l 344,0 c 16,0 20,-4 20,-20 l 0,-172 c 0,-32 -24,-56 -56,-56 24,-24 24,-56 0,-80 -24,-24 -56,-24 -80,0 0,-32 -24,-56 -56,-56 z m 0,28 c 16,0 28,12 28,28 0,8 -4,16 -8,20 l 0,72 48,-48 c 0,-16 12,-28 28,-28 16,0 28,12 28,28 0,16 -12,28 -28,28 l -44,44 60,0 c 4,-8 12,-12 24,-12 16,0 28,16 28,32 l -328,0 c 0,-16 12,-32 28,-32 12,0 20,4 24,12 l 60,0 -44,-44 c -16,0 -28,-12 -28,-28 0,-16 12,-28 28,-28 16,0 28,12 28,28 l 48,48 0,-72 c -4,-4 -8,-12 -8,-20 0,-16 12,-28 28,-28 z M 156,268 c 28,0 48,20 48,48 l -28,0 c 0,-12 -8,-20 -20,-20 -12,0 -20,8 -20,20 0,12 8,20 20,20 12,0 28,8 36,16 12,12 12,24 12,36 0,28 -20,52 -48,52 -28,0 -48,-24 -48,-52 l 28,0 c 0,12 8,20 20,20 12,0 20,-8 20,-20 0,-12 -8,-20 -20,-20 -12,0 -28,-8 -36,-16 -12,-12 -12,-24 -12,-36 0,-28 20,-48 48,-48 z m 52,0 28,0 20,100 20,-100 28,0 -32,172 -32,0 z m 148,0 c 28,0 48,24 48,52 l -28,0 c 0,-12 -8,-20 -20,-20 -12,0 -20,8 -20,20 l 0,68 c 0,12 8,20 20,20 12,0 20,-8 20,-20 l 0,-20 -20,0 0,-28 48,0 0,48 c 0,28 -20,52 -48,52 -28,0 -48,-24 -48,-52 l 0,-68 c 0,-28 20,-52 48,-52 z"
    style="fill:#ffffff"/>
</svg>
