<?xml version="1.0" encoding="UTF-8" standalone="no"?>
<svg
  xmlns="http://www.w3.org/2000/svg"
  version="1.1"
  width="512"
  height="512"
  viewBox="0 0 512 512">
  <path
    d="m 215.82278,64 c -2.44678,19.80091 -7.00678,36.24668 -13.51898,49.06329 -6.50309,12.82815 -15.0641,23.81955 -25.82279,32.96203 -10.74228,9.15645 -23.6561,16.06116 -38.73417,20.96202 l 0,54.37975 42.37974,0 0,134.58228 c 0,17.54005 1.94127,31.02015 5.62026,40.25316 3.67412,9.24458 10.21974,17.91433 19.74683,26.12658 3.68693,3.16888 7.72129,6.04878 12,8.65823 1.8131,1.10578 3.7007,2.18491 5.62025,3.18988 1.50635,0.79546 3.13623,1.54591 4.70886,2.27848 1.11407,0.51368 2.19477,1.03655 3.34178,1.51898 0.31117,0.13226 0.59771,0.32582 0.91139,0.4557 2.56784,1.05323 5.16814,1.98737 7.89873,2.88608 13.48618,4.42635 29.09104,6.68354 46.63291,6.68354 3.8112,-0.003 7.56018,-0.11204 11.24051,-0.3038 11.19008,-0.58305 21.92127,-2.07326 31.89874,-4.40506 13.2887,-3.10904 28.0964,-8.52757 44.50632,-16.25317 l 0,-36.91139 0,-23.6962 c -19.23159,12.63858 -38.59686,18.98734 -58.02531,18.98734 -10.94157,0 -20.67038,-2.5039 -29.16456,-7.59494 -6.40344,-3.77377 -10.71311,-8.87635 -13.06329,-15.18987 -2.36354,-6.32506 -3.64557,-20.58471 -3.64557,-42.83544 l 0,-98.43038 91.13924,0 0,-60.3038 -91.13924,0 0,-97.06329 -54.53165,0 z"
    style="fill:#ffffff"/>
</svg>
