<?xml version="1.0" encoding="UTF-8" standalone="no"?>
<svg
  xmlns="http://www.w3.org/2000/svg"
  version="1.1"
  width="512"
  height="512"
  viewBox="0 0 512 512">
  <path
    d="m 492.25513,109.45554 c -17.3837,7.71137 -36.06909,12.9208 -55.67589,15.26445 20.0108,-11.99704 35.3839,-30.99434 42.6228,-53.63232 -18.7327,11.11108 -39.4783,19.17684 -61.5611,23.52394 C 399.95964,75.77025 374.76533,64 346.88243,64 c -53.5354,0 -96.94214,43.40248 -96.94214,96.93794 0,7.59797 0.85714,14.99749 2.51021,22.09224 -80.56685,-4.04233 -151.99913,-42.63701 -199.810355,-101.2874 -8.34549,14.31707 -13.12595,30.97071 -13.12595,48.73712 0,33.63331 17.1137,63.30462 43.12683,80.68829 -15.891,-0.50323 -30.83959,-4.8645 -43.9085,-12.12463 -0.009,0.404 -0.009,0.808 -0.009,1.21908 0,46.96827 33.4162,86.14696 77.762265,95.05546 -8.13333,2.2149 -16.697575,3.4009 -25.538725,3.4009 -6.24683,0 -12.31954,-0.6091 -18.23962,-1.7398 12.33607,38.5115 48.137025,66.5411 90.557625,67.32 -33.1771,26.0028 -74.975875,41.5006 -120.395075,41.5006 -7.82503,0 -15.54208,-0.4604 -23.12533,-1.3556 C 62.645325,431.9485 113.60183,448 168.34645,448 c 178.30949,0 275.81908,-147.7158 275.81908,-275.82103 0,-4.20299 -0.097,-8.38234 -0.2835,-12.54044 18.943,-13.66973 35.3769,-30.74154 48.3733,-50.183"
    style="fill:#ffffff"/>
</svg>
