<?xml version="1.0" encoding="UTF-8" standalone="no"?>
<svg
  xmlns="http://www.w3.org/2000/svg"
  version="1.1"
  width="512"
  height="512"
  viewBox="0 0 512 512">
  <path
    d="M 72,80 64,88.53125 64,112 l 8,8 16,0 0,304 8,8 32,0 132,-132 4,8 24,0 8,-8 4,-12 -8,-8 -16,0 160,-160 0,-32 -8,-8 -128,0 -8.34375,7.96875 L 292,112 l 8,8 20,0 -128,128 0,-128 12,0 8,-8 0,-24 -8,-8 z m 168,252 -4,12 12,0 -24,72 40,0 4,-12 -8,0 24,-72 z m 128,0 -8,8 -20,0 -8,-8 -28,0 -4,12 12,0 -24,72 32,0 4,-12 -8,0 16,-48 32,0 -20,60 32,0 4,-12 -8,0 16,-48 32,0 -20,60 32,0 4,-12 -8,0 20,-60 -12,-12 -16,0 -8,8 -20,0 -8,-8 z"
    style="fill:#ffffff"/>
</svg>
