<?xml version="1.0" encoding="UTF-8" standalone="no"?>
<svg
  xmlns="http://www.w3.org/2000/svg"
  version="1.1"
  width="512"
  height="512"
  viewBox="0 0 512 512">
  <path
    d="m 256,128 c -76.43452,0 -145.03023,33.50925 -191.9375,86.625 l 30,26.5 C 133.6408,196.30077 191.5019,168 256,168 c 64.4981,0 122.3592,28.30077 161.9375,73.125 l 30,-26.5 C 401.03023,161.50925 332.43452,128 256,128 z m 0,64 c -57.32865,0 -108.78817,25.1286 -143.96875,64.96875 l 30,26.46875 C 169.88248,251.89902 210.61617,232 256,232 c 45.38383,0 86.11752,19.89902 113.96875,51.4375 l 30,-26.46875 C 364.78817,217.1286 313.32865,192 256,192 z m 0,64 c -38.21979,0 -72.515,16.75157 -95.96875,43.3125 l 30,26.46875 C 206.15565,307.52201 229.72505,296 256,296 c 26.27495,0 49.84435,11.52201 65.96875,29.78125 l 30,-26.46875 C 328.515,272.75157 294.21979,256 256,256 z m 0,64 c -19.10587,0 -36.24206,8.38065 -47.96875,21.65625 L 256,384 303.96875,341.65625 C 292.24206,328.38065 275.10587,320 256,320 z"
    style="fill:#ffffff"/>
</svg>
