<svg xmlns="http://www.w3.org/2000/svg" xmlns:xlink="http://www.w3.org/1999/xlink" version="1.1" class="marks" width="1096" height="893" viewBox="0 0 1096 893"><rect width="1096" height="893" fill="white"/><g fill="none" stroke-miterlimit="10" transform="translate(67,10)"><g class="mark-group role-frame root" role="graphics-object" aria-roledescription="group mark container"><g transform="translate(0,0)"><path class="background" aria-hidden="true" d="M0.5,0.5h1024v800h-1024Z" stroke="#ddd"/><g><g class="mark-group role-axis" aria-hidden="true"><g transform="translate(0.5,0.5)"><path class="background" aria-hidden="true" d="M0,0h0v0h0Z" pointer-events="none"/><g><g class="mark-rule role-axis-grid" pointer-events="none"><line transform="translate(0,800)" x2="1024" y2="0" stroke="#ddd" stroke-width="1" opacity="1"/><line transform="translate(0,764)" x2="1024" y2="0" stroke="#ddd" stroke-width="1" opacity="1"/><line transform="translate(0,727)" x2="1024" y2="0" stroke="#ddd" stroke-width="1" opacity="1"/><line transform="translate(0,691)" x2="1024" y2="0" stroke="#ddd" stroke-width="1" opacity="1"/><line transform="translate(0,655)" x2="1024" y2="0" stroke="#ddd" stroke-width="1" opacity="1"/><line transform="translate(0,618)" x2="1024" y2="0" stroke="#ddd" stroke-width="1" opacity="1"/><line transform="translate(0,582)" x2="1024" y2="0" stroke="#ddd" stroke-width="1" opacity="1"/><line transform="translate(0,545)" x2="1024" y2="0" stroke="#ddd" stroke-width="1" opacity="1"/><line transform="translate(0,509)" x2="1024" y2="0" stroke="#ddd" stroke-width="1" opacity="1"/><line transform="translate(0,473)" x2="1024" y2="0" stroke="#ddd" stroke-width="1" opacity="1"/><line transform="translate(0,436)" x2="1024" y2="0" stroke="#ddd" stroke-width="1" opacity="1"/><line transform="translate(0,400)" x2="1024" y2="0" stroke="#ddd" stroke-width="1" opacity="1"/><line transform="translate(0,364)" x2="1024" y2="0" stroke="#ddd" stroke-width="1" opacity="1"/><line transform="translate(0,327)" x2="1024" y2="0" stroke="#ddd" stroke-width="1" opacity="1"/><line transform="translate(0,291)" x2="1024" y2="0" stroke="#ddd" stroke-width="1" opacity="1"/><line transform="translate(0,255)" x2="1024" y2="0" stroke="#ddd" stroke-width="1" opacity="1"/><line transform="translate(0,218)" x2="1024" y2="0" stroke="#ddd" stroke-width="1" opacity="1"/><line transform="translate(0,182)" x2="1024" y2="0" stroke="#ddd" stroke-width="1" opacity="1"/><line transform="translate(0,145)" x2="1024" y2="0" stroke="#ddd" stroke-width="1" opacity="1"/><line transform="translate(0,109)" x2="1024" y2="0" stroke="#ddd" stroke-width="1" opacity="1"/><line transform="translate(0,73)" x2="1024" y2="0" stroke="#ddd" stroke-width="1" opacity="1"/><line transform="translate(0,36)" x2="1024" y2="0" stroke="#ddd" stroke-width="1" opacity="1"/><line transform="translate(0,0)" x2="1024" y2="0" stroke="#ddd" stroke-width="1" opacity="1"/></g></g><path class="foreground" aria-hidden="true" d="" pointer-events="none" display="none"/></g></g><g class="mark-group role-axis" role="graphics-symbol" aria-roledescription="axis" aria-label="X-axis titled 'month' for a discrete scale with 39 values: 2019-10, 2019-11, 2019-12, 2020-01, 2020-02, ending with 2022-12"><g transform="translate(0.5,800.5)"><path class="background" aria-hidden="true" d="M0,0h0v0h0Z" pointer-events="none"/><g><g class="mark-rule role-axis-tick" pointer-events="none"><line transform="translate(13,0)" x2="0" y2="5" stroke="#888" stroke-width="1" opacity="1"/><line transform="translate(39,0)" x2="0" y2="5" stroke="#888" stroke-width="1" opacity="1"/><line transform="translate(65,0)" x2="0" y2="5" stroke="#888" stroke-width="1" opacity="1"/><line transform="translate(91,0)" x2="0" y2="5" stroke="#888" stroke-width="1" opacity="1"/><line transform="translate(118,0)" x2="0" y2="5" stroke="#888" stroke-width="1" opacity="1"/><line transform="translate(144,0)" x2="0" y2="5" stroke="#888" stroke-width="1" opacity="1"/><line transform="translate(170,0)" x2="0" y2="5" stroke="#888" stroke-width="1" opacity="1"/><line transform="translate(196,0)" x2="0" y2="5" stroke="#888" stroke-width="1" opacity="1"/><line transform="translate(223,0)" x2="0" y2="5" stroke="#888" stroke-width="1" opacity="1"/><line transform="translate(249,0)" x2="0" y2="5" stroke="#888" stroke-width="1" opacity="1"/><line transform="translate(275,0)" x2="0" y2="5" stroke="#888" stroke-width="1" opacity="1"/><line transform="translate(301,0)" x2="0" y2="5" stroke="#888" stroke-width="1" opacity="1"/><line transform="translate(328,0)" x2="0" y2="5" stroke="#888" stroke-width="1" opacity="1"/><line transform="translate(354,0)" x2="0" y2="5" stroke="#888" stroke-width="1" opacity="1"/><line transform="translate(380,0)" x2="0" y2="5" stroke="#888" stroke-width="1" opacity="1"/><line transform="translate(406,0)" x2="0" y2="5" stroke="#888" stroke-width="1" opacity="1"/><line transform="translate(433,0)" x2="0" y2="5" stroke="#888" stroke-width="1" opacity="1"/><line transform="translate(459,0)" x2="0" y2="5" stroke="#888" stroke-width="1" opacity="1"/><line transform="translate(485,0)" x2="0" y2="5" stroke="#888" stroke-width="1" opacity="1"/><line transform="translate(512,0)" x2="0" y2="5" stroke="#888" stroke-width="1" opacity="1"/><line transform="translate(538,0)" x2="0" y2="5" stroke="#888" stroke-width="1" opacity="1"/><line transform="translate(564,0)" x2="0" y2="5" stroke="#888" stroke-width="1" opacity="1"/><line transform="translate(590,0)" x2="0" y2="5" stroke="#888" stroke-width="1" opacity="1"/><line transform="translate(617,0)" x2="0" y2="5" stroke="#888" stroke-width="1" opacity="1"/><line transform="translate(643,0)" x2="0" y2="5" stroke="#888" stroke-width="1" opacity="1"/><line transform="translate(669,0)" x2="0" y2="5" stroke="#888" stroke-width="1" opacity="1"/><line transform="translate(695,0)" x2="0" y2="5" stroke="#888" stroke-width="1" opacity="1"/><line transform="translate(722,0)" x2="0" y2="5" stroke="#888" stroke-width="1" opacity="1"/><line transform="translate(748,0)" x2="0" y2="5" stroke="#888" stroke-width="1" opacity="1"/><line transform="translate(774,0)" x2="0" y2="5" stroke="#888" stroke-width="1" opacity="1"/><line transform="translate(800,0)" x2="0" y2="5" stroke="#888" stroke-width="1" opacity="1"/><line transform="translate(827,0)" x2="0" y2="5" stroke="#888" stroke-width="1" opacity="1"/><line transform="translate(853,0)" x2="0" y2="5" stroke="#888" stroke-width="1" opacity="1"/><line transform="translate(879,0)" x2="0" y2="5" stroke="#888" stroke-width="1" opacity="1"/><line transform="translate(905,0)" x2="0" y2="5" stroke="#888" stroke-width="1" opacity="1"/><line transform="translate(932,0)" x2="0" y2="5" stroke="#888" stroke-width="1" opacity="1"/><line transform="translate(958,0)" x2="0" y2="5" stroke="#888" stroke-width="1" opacity="1"/><line transform="translate(984,0)" x2="0" y2="5" stroke="#888" stroke-width="1" opacity="1"/><line transform="translate(1010,0)" x2="0" y2="5" stroke="#888" stroke-width="1" opacity="1"/></g><g class="mark-text role-axis-label" pointer-events="none"><text text-anchor="end" transform="translate(12.628205128205181,7) rotate(270) translate(0,3)" font-family="sans-serif" font-size="10px" fill="#000" opacity="1">2019-10</text><text text-anchor="end" transform="translate(38.88461538461544,7) rotate(270) translate(0,3)" font-family="sans-serif" font-size="10px" fill="#000" opacity="1">2019-11</text><text text-anchor="end" transform="translate(65.14102564102569,7) rotate(270) translate(0,3)" font-family="sans-serif" font-size="10px" fill="#000" opacity="1">2019-12</text><text text-anchor="end" transform="translate(91.39743589743595,7) rotate(270) translate(0,3)" font-family="sans-serif" font-size="10px" fill="#000" opacity="1">2020-01</text><text text-anchor="end" transform="translate(117.6538461538462,7) rotate(270) translate(0,3)" font-family="sans-serif" font-size="10px" fill="#000" opacity="1">2020-02</text><text text-anchor="end" transform="translate(143.91025641025647,7) rotate(270) translate(0,3)" font-family="sans-serif" font-size="10px" fill="#000" opacity="1">2020-03</text><text text-anchor="end" transform="translate(170.16666666666674,7) rotate(270) translate(0,3)" font-family="sans-serif" font-size="10px" fill="#000" opacity="1">2020-04</text><text text-anchor="end" transform="translate(196.42307692307696,7) rotate(270) translate(0,3)" font-family="sans-serif" font-size="10px" fill="#000" opacity="1">2020-05</text><text text-anchor="end" transform="translate(222.67948717948724,7) rotate(270) translate(0,3)" font-family="sans-serif" font-size="10px" fill="#000" opacity="1">2020-06</text><text text-anchor="end" transform="translate(248.93589743589746,7) rotate(270) translate(0,3)" font-family="sans-serif" font-size="10px" fill="#000" opacity="1">2020-07</text><text text-anchor="end" transform="translate(275.19230769230774,7) rotate(270) translate(0,3)" font-family="sans-serif" font-size="10px" fill="#000" opacity="1">2020-08</text><text text-anchor="end" transform="translate(301.448717948718,7) rotate(270) translate(0,3)" font-family="sans-serif" font-size="10px" fill="#000" opacity="1">2020-09</text><text text-anchor="end" transform="translate(327.7051282051283,7) rotate(270) translate(0,3)" font-family="sans-serif" font-size="10px" fill="#000" opacity="1">2020-10</text><text text-anchor="end" transform="translate(353.9615384615385,7) rotate(270) translate(0,3)" font-family="sans-serif" font-size="10px" fill="#000" opacity="1">2020-11</text><text text-anchor="end" transform="translate(380.2179487179488,7) rotate(270) translate(0,3)" font-family="sans-serif" font-size="10px" fill="#000" opacity="1">2020-12</text><text text-anchor="end" transform="translate(406.474358974359,7) rotate(270) translate(0,3)" font-family="sans-serif" font-size="10px" fill="#000" opacity="1">2021-01</text><text text-anchor="end" transform="translate(432.7307692307693,7) rotate(270) translate(0,3)" font-family="sans-serif" font-size="10px" fill="#000" opacity="1">2021-02</text><text text-anchor="end" transform="translate(458.98717948717956,7) rotate(270) translate(0,3)" font-family="sans-serif" font-size="10px" fill="#000" opacity="1">2021-03</text><text text-anchor="end" transform="translate(485.2435897435898,7) rotate(270) translate(0,3)" font-family="sans-serif" font-size="10px" fill="#000" opacity="1">2021-04</text><text text-anchor="end" transform="translate(511.5,7) rotate(270) translate(0,3)" font-family="sans-serif" font-size="10px" fill="#000" opacity="1">2021-05</text><text text-anchor="end" transform="translate(537.7564102564102,7) rotate(270) translate(0,3)" font-family="sans-serif" font-size="10px" fill="#000" opacity="1">2021-06</text><text text-anchor="end" transform="translate(564.0128205128206,7) rotate(270) translate(0,3)" font-family="sans-serif" font-size="10px" fill="#000" opacity="1">2021-07</text><text text-anchor="end" transform="translate(590.2692307692307,7) rotate(270) translate(0,3)" font-family="sans-serif" font-size="10px" fill="#000" opacity="1">2021-08</text><text text-anchor="end" transform="translate(616.5256410256411,7) rotate(270) translate(0,3)" font-family="sans-serif" font-size="10px" fill="#000" opacity="1">2021-09</text><text text-anchor="end" transform="translate(642.7820512820513,7) rotate(270) translate(0,3)" font-family="sans-serif" font-size="10px" fill="#000" opacity="1">2021-10</text><text text-anchor="end" transform="translate(669.0384615384614,7) rotate(270) translate(0,3)" font-family="sans-serif" font-size="10px" fill="#000" opacity="1">2021-11</text><text text-anchor="end" transform="translate(695.2948717948718,7) rotate(270) translate(0,3)" font-family="sans-serif" font-size="10px" fill="#000" opacity="1">2021-12</text><text text-anchor="end" transform="translate(721.551282051282,7) rotate(270) translate(0,3)" font-family="sans-serif" font-size="10px" fill="#000" opacity="1">2022-01</text><text text-anchor="end" transform="translate(747.8076923076924,7) rotate(270) translate(0,3)" font-family="sans-serif" font-size="10px" fill="#000" opacity="1">2022-02</text><text text-anchor="end" transform="translate(774.0641025641025,7) rotate(270) translate(0,3)" font-family="sans-serif" font-size="10px" fill="#000" opacity="1">2022-03</text><text text-anchor="end" transform="translate(800.3205128205127,7) rotate(270) translate(0,3)" font-family="sans-serif" font-size="10px" fill="#000" opacity="1">2022-04</text><text text-anchor="end" transform="translate(826.5769230769231,7) rotate(270) translate(0,3)" font-family="sans-serif" font-size="10px" fill="#000" opacity="1">2022-05</text><text text-anchor="end" transform="translate(852.8333333333333,7) rotate(270) translate(0,3)" font-family="sans-serif" font-size="10px" fill="#000" opacity="1">2022-06</text><text text-anchor="end" transform="translate(879.0897435897436,7) rotate(270) translate(0,3)" font-family="sans-serif" font-size="10px" fill="#000" opacity="1">2022-07</text><text text-anchor="end" transform="translate(905.3461538461538,7) rotate(270) translate(0,3)" font-family="sans-serif" font-size="10px" fill="#000" opacity="1">2022-08</text><text text-anchor="end" transform="translate(931.602564102564,7) rotate(270) translate(0,3)" font-family="sans-serif" font-size="10px" fill="#000" opacity="1">2022-09</text><text text-anchor="end" transform="translate(957.8589743589744,7) rotate(270) translate(0,3)" font-family="sans-serif" font-size="10px" fill="#000" opacity="1">2022-10</text><text text-anchor="end" transform="translate(984.1153846153845,7) rotate(270) translate(0,3)" font-family="sans-serif" font-size="10px" fill="#000" opacity="1">2022-11</text><text text-anchor="end" transform="translate(1010.3717948717949,7) rotate(270) translate(0,3)" font-family="sans-serif" font-size="10px" fill="#000" opacity="1">2022-12</text></g><g class="mark-rule role-axis-domain" pointer-events="none"><line transform="translate(0,0)" x2="1024" y2="0" stroke="#888" stroke-width="1" opacity="1"/></g><g class="mark-text role-axis-title" pointer-events="none"><text text-anchor="middle" transform="translate(512,76)" font-family="sans-serif" font-size="11px" font-weight="bold" fill="#000" opacity="1">month</text></g></g><path class="foreground" aria-hidden="true" d="" pointer-events="none" display="none"/></g></g><g class="mark-group role-axis" role="graphics-symbol" aria-roledescription="axis" aria-label="Y-axis titled 'estimatedIncomeDollar' for a linear scale with values from 0 to 1,100"><g transform="translate(0.5,0.5)"><path class="background" aria-hidden="true" d="M0,0h0v0h0Z" pointer-events="none"/><g><g class="mark-rule role-axis-tick" pointer-events="none"><line transform="translate(0,800)" x2="-5" y2="0" stroke="#888" stroke-width="1" opacity="1"/><line transform="translate(0,764)" x2="-5" y2="0" stroke="#888" stroke-width="1" opacity="1"/><line transform="translate(0,727)" x2="-5" y2="0" stroke="#888" stroke-width="1" opacity="1"/><line transform="translate(0,691)" x2="-5" y2="0" stroke="#888" stroke-width="1" opacity="1"/><line transform="translate(0,655)" x2="-5" y2="0" stroke="#888" stroke-width="1" opacity="1"/><line transform="translate(0,618)" x2="-5" y2="0" stroke="#888" stroke-width="1" opacity="1"/><line transform="translate(0,582)" x2="-5" y2="0" stroke="#888" stroke-width="1" opacity="1"/><line transform="translate(0,545)" x2="-5" y2="0" stroke="#888" stroke-width="1" opacity="1"/><line transform="translate(0,509)" x2="-5" y2="0" stroke="#888" stroke-width="1" opacity="1"/><line transform="translate(0,473)" x2="-5" y2="0" stroke="#888" stroke-width="1" opacity="1"/><line transform="translate(0,436)" x2="-5" y2="0" stroke="#888" stroke-width="1" opacity="1"/><line transform="translate(0,400)" x2="-5" y2="0" stroke="#888" stroke-width="1" opacity="1"/><line transform="translate(0,364)" x2="-5" y2="0" stroke="#888" stroke-width="1" opacity="1"/><line transform="translate(0,327)" x2="-5" y2="0" stroke="#888" stroke-width="1" opacity="1"/><line transform="translate(0,291)" x2="-5" y2="0" stroke="#888" stroke-width="1" opacity="1"/><line transform="translate(0,255)" x2="-5" y2="0" stroke="#888" stroke-width="1" opacity="1"/><line transform="translate(0,218)" x2="-5" y2="0" stroke="#888" stroke-width="1" opacity="1"/><line transform="translate(0,182)" x2="-5" y2="0" stroke="#888" stroke-width="1" opacity="1"/><line transform="translate(0,145)" x2="-5" y2="0" stroke="#888" stroke-width="1" opacity="1"/><line transform="translate(0,109)" x2="-5" y2="0" stroke="#888" stroke-width="1" opacity="1"/><line transform="translate(0,73)" x2="-5" y2="0" stroke="#888" stroke-width="1" opacity="1"/><line transform="translate(0,36)" x2="-5" y2="0" stroke="#888" stroke-width="1" opacity="1"/><line transform="translate(0,0)" x2="-5" y2="0" stroke="#888" stroke-width="1" opacity="1"/></g><g class="mark-text role-axis-label" pointer-events="none"><text text-anchor="end" transform="translate(-7,803)" font-family="sans-serif" font-size="10px" fill="#000" opacity="1">0</text><text text-anchor="end" transform="translate(-7,766.6363636363636)" font-family="sans-serif" font-size="10px" fill="#000" opacity="1">50</text><text text-anchor="end" transform="translate(-7,730.2727272727273)" font-family="sans-serif" font-size="10px" fill="#000" opacity="1">100</text><text text-anchor="end" transform="translate(-7,693.9090909090909)" font-family="sans-serif" font-size="10px" fill="#000" opacity="1">150</text><text text-anchor="end" transform="translate(-7,657.5454545454545)" font-family="sans-serif" font-size="10px" fill="#000" opacity="1">200</text><text text-anchor="end" transform="translate(-7,621.1818181818181)" font-family="sans-serif" font-size="10px" fill="#000" opacity="1">250</text><text text-anchor="end" transform="translate(-7,584.8181818181819)" font-family="sans-serif" font-size="10px" fill="#000" opacity="1">300</text><text text-anchor="end" transform="translate(-7,548.4545454545455)" font-family="sans-serif" font-size="10px" fill="#000" opacity="1">350</text><text text-anchor="end" transform="translate(-7,512.090909090909)" font-family="sans-serif" font-size="10px" fill="#000" opacity="1">400</text><text text-anchor="end" transform="translate(-7,475.72727272727263)" font-family="sans-serif" font-size="10px" fill="#000" opacity="1">450</text><text text-anchor="end" transform="translate(-7,439.3636363636363)" font-family="sans-serif" font-size="10px" fill="#000" opacity="1">500</text><text text-anchor="end" transform="translate(-7,403)" font-family="sans-serif" font-size="10px" fill="#000" opacity="1">550</text><text text-anchor="end" transform="translate(-7,366.6363636363637)" font-family="sans-serif" font-size="10px" fill="#000" opacity="1">600</text><text text-anchor="end" transform="translate(-7,330.27272727272725)" font-family="sans-serif" font-size="10px" fill="#000" opacity="1">650</text><text text-anchor="end" transform="translate(-7,293.90909090909093)" font-family="sans-serif" font-size="10px" fill="#000" opacity="1">700</text><text text-anchor="end" transform="translate(-7,257.5454545454546)" font-family="sans-serif" font-size="10px" fill="#000" opacity="1">750</text><text text-anchor="end" transform="translate(-7,221.18181818181816)" font-family="sans-serif" font-size="10px" fill="#000" opacity="1">800</text><text text-anchor="end" transform="translate(-7,184.81818181818184)" font-family="sans-serif" font-size="10px" fill="#000" opacity="1">850</text><text text-anchor="end" transform="translate(-7,148.4545454545454)" font-family="sans-serif" font-size="10px" fill="#000" opacity="1">900</text><text text-anchor="end" transform="translate(-7,112.09090909090908)" font-family="sans-serif" font-size="10px" fill="#000" opacity="1">950</text><text text-anchor="end" transform="translate(-7,75.72727272727275)" font-family="sans-serif" font-size="10px" fill="#000" opacity="1">1,000</text><text text-anchor="end" transform="translate(-7,39.36363636363633)" font-family="sans-serif" font-size="10px" fill="#000" opacity="1">1,050</text><text text-anchor="end" transform="translate(-7,3)" font-family="sans-serif" font-size="10px" fill="#000" opacity="1">1,100</text></g><g class="mark-rule role-axis-domain" pointer-events="none"><line transform="translate(0,800)" x2="0" y2="-800" stroke="#888" stroke-width="1" opacity="1"/></g><g class="mark-text role-axis-title" pointer-events="none"><text text-anchor="middle" transform="translate(-51,400) rotate(-90) translate(0,-2)" font-family="sans-serif" font-size="11px" font-weight="bold" fill="#000" opacity="1">estimatedIncomeDollar</text></g></g><path class="foreground" aria-hidden="true" d="" pointer-events="none" display="none"/></g></g><g class="mark-rect role-mark marks" role="graphics-object" aria-roledescription="rect mark container"><path aria-label="month: 2019-10; estimatedIncomeDollar: 81" role="graphics-symbol" aria-roledescription="bar" d="M1.312820512820565,741.0909090909091h23.630769230769232v58.90909090909088h-23.630769230769232Z" fill="#4c78a8"/><path aria-label="month: 2019-11; estimatedIncomeDollar: 91" role="graphics-symbol" aria-roledescription="bar" d="M27.56923076923082,733.8181818181818h23.630769230769232v66.18181818181824h-23.630769230769232Z" fill="#4c78a8"/><path aria-label="month: 2019-12; estimatedIncomeDollar: 97" role="graphics-symbol" aria-roledescription="bar" d="M53.825641025641076,729.4545454545455h23.630769230769232v70.5454545454545h-23.630769230769232Z" fill="#4c78a8"/><path aria-label="month: 2020-01; estimatedIncomeDollar: 103" role="graphics-symbol" aria-roledescription="bar" d="M80.08205128205134,725.0909090909091h23.630769230769232v74.90909090909088h-23.630769230769232Z" fill="#4c78a8"/><path aria-label="month: 2020-02; estimatedIncomeDollar: 108" role="graphics-symbol" aria-roledescription="bar" d="M106.33846153846159,721.4545454545455h23.630769230769232v78.5454545454545h-23.630769230769232Z" fill="#4c78a8"/><path aria-label="month: 2020-03; estimatedIncomeDollar: 108" role="graphics-symbol" aria-roledescription="bar" d="M132.59487179487184,721.4545454545455h23.630769230769232v78.5454545454545h-23.630769230769232Z" fill="#4c78a8"/><path aria-label="month: 2020-04; estimatedIncomeDollar: 112" role="graphics-symbol" aria-roledescription="bar" d="M158.8512820512821,718.5454545454545h23.630769230769232v81.4545454545455h-23.630769230769232Z" fill="#4c78a8"/><path aria-label="month: 2020-05; estimatedIncomeDollar: 118" role="graphics-symbol" aria-roledescription="bar" d="M185.10769230769236,714.1818181818181h23.630769230769232v85.81818181818187h-23.630769230769232Z" fill="#4c78a8"/><path aria-label="month: 2020-06; estimatedIncomeDollar: 120" role="graphics-symbol" aria-roledescription="bar" d="M211.3641025641026,712.7272727272727h23.630769230769232v87.27272727272725h-23.630769230769232Z" fill="#4c78a8"/><path aria-label="month: 2020-07; estimatedIncomeDollar: 120" role="graphics-symbol" aria-roledescription="bar" d="M237.62051282051286,712.7272727272727h23.630769230769232v87.27272727272725h-23.630769230769232Z" fill="#4c78a8"/><path aria-label="month: 2020-08; estimatedIncomeDollar: 122" role="graphics-symbol" aria-roledescription="bar" d="M263.8769230769231,711.2727272727273h23.630769230769232v88.72727272727275h-23.630769230769232Z" fill="#4c78a8"/><path aria-label="month: 2020-09; estimatedIncomeDollar: 123" role="graphics-symbol" aria-roledescription="bar" d="M290.1333333333334,710.5454545454545h23.630769230769232v89.4545454545455h-23.630769230769232Z" fill="#4c78a8"/><path aria-label="month: 2020-10; estimatedIncomeDollar: 123" role="graphics-symbol" aria-roledescription="bar" d="M316.38974358974366,710.5454545454545h23.630769230769232v89.4545454545455h-23.630769230769232Z" fill="#4c78a8"/><path aria-label="month: 2020-11; estimatedIncomeDollar: 124" role="graphics-symbol" aria-roledescription="bar" d="M342.6461538461539,709.8181818181818h23.630769230769232v90.18181818181824h-23.630769230769232Z" fill="#4c78a8"/><path aria-label="month: 2020-12; estimatedIncomeDollar: 231" role="graphics-symbol" aria-roledescription="bar" d="M368.90256410256416,632h23.630769230769232v168h-23.630769230769232Z" fill="#4c78a8"/><path aria-label="month: 2021-01; estimatedIncomeDollar: 243" role="graphics-symbol" aria-roledescription="bar" d="M395.1589743589744,623.2727272727273h23.630769230769232v176.72727272727275h-23.630769230769232Z" fill="#4c78a8"/><path aria-label="month: 2021-02; estimatedIncomeDollar: 249" role="graphics-symbol" aria-roledescription="bar" d="M421.41538461538465,618.909090909091h23.630769230769232v181.090909090909h-23.630769230769232Z" fill="#4c78a8"/><path aria-label="month: 2021-03; estimatedIncomeDollar: 262" role="graphics-symbol" aria-roledescription="bar" d="M447.67179487179493,609.4545454545455h23.630769230769232v190.5454545454545h-23.630769230769232Z" fill="#4c78a8"/><path aria-label="month: 2021-04; estimatedIncomeDollar: 274" role="graphics-symbol" aria-roledescription="bar" d="M473.92820512820515,600.7272727272727h23.630769230769232v199.27272727272725h-23.630769230769232Z" fill="#4c78a8"/><path aria-label="month: 2021-05; estimatedIncomeDollar: 601" role="graphics-symbol" aria-roledescription="bar" d="M500.1846153846154,362.9090909090909h23.630769230769232v437.0909090909091h-23.630769230769232Z" fill="#4c78a8"/><path aria-label="month: 2021-06; estimatedIncomeDollar: 608" role="graphics-symbol" aria-roledescription="bar" d="M526.4410256410256,357.8181818181818h23.630769230769232v442.1818181818182h-23.630769230769232Z" fill="#4c78a8"/><path aria-label="month: 2021-07; estimatedIncomeDollar: 608" role="graphics-symbol" aria-roledescription="bar" d="M552.697435897436,357.8181818181818h23.630769230769232v442.1818181818182h-23.630769230769232Z" fill="#4c78a8"/><path aria-label="month: 2021-08; estimatedIncomeDollar: 609" role="graphics-symbol" aria-roledescription="bar" d="M578.9538461538461,357.0909090909091h23.630769230769232v442.9090909090909h-23.630769230769232Z" fill="#4c78a8"/><path aria-label="month: 2021-09; estimatedIncomeDollar: 616" role="graphics-symbol" aria-roledescription="bar" d="M605.2102564102565,351.99999999999994h23.630769230769232v448.00000000000006h-23.630769230769232Z" fill="#4c78a8"/><path aria-label="month: 2021-10; estimatedIncomeDollar: 956" role="graphics-symbol" aria-roledescription="bar" d="M631.4666666666667,104.72727272727269h23.630769230769232v695.2727272727273h-23.630769230769232Z" fill="#4c78a8"/><path aria-label="month: 2021-11; estimatedIncomeDollar: 962" role="graphics-symbol" aria-roledescription="bar" d="M657.7230769230769,100.36363636363639h23.630769230769232v699.6363636363636h-23.630769230769232Z" fill="#4c78a8"/><path aria-label="month: 2021-12; estimatedIncomeDollar: 962" role="graphics-symbol" aria-roledescription="bar" d="M683.9794871794873,100.36363636363639h23.630769230769232v699.6363636363636h-23.630769230769232Z" fill="#4c78a8"/><path aria-label="month: 2022-01; estimatedIncomeDollar: 981" role="graphics-symbol" aria-roledescription="bar" d="M710.2358974358974,86.54545454545453h23.630769230769232v713.4545454545455h-23.630769230769232Z" fill="#4c78a8"/><path aria-label="month: 2022-02; estimatedIncomeDollar: 981" role="graphics-symbol" aria-roledescription="bar" d="M736.4923076923078,86.54545454545453h23.630769230769232v713.4545454545455h-23.630769230769232Z" fill="#4c78a8"/><path aria-label="month: 2022-03; estimatedIncomeDollar: 983" role="graphics-symbol" aria-roledescription="bar" d="M762.748717948718,85.09090909090907h23.630769230769232v714.909090909091h-23.630769230769232Z" fill="#4c78a8"/><path aria-label="month: 2022-04; estimatedIncomeDollar: 998" role="graphics-symbol" aria-roledescription="bar" d="M789.0051282051281,74.18181818181822h23.630769230769232v725.8181818181818h-23.630769230769232Z" fill="#4c78a8"/><path aria-label="month: 2022-05; estimatedIncomeDollar: 999" role="graphics-symbol" aria-roledescription="bar" d="M815.2615384615385,73.45454545454544h23.630769230769232v726.5454545454545h-23.630769230769232Z" fill="#4c78a8"/><path aria-label="month: 2022-06; estimatedIncomeDollar: 999" role="graphics-symbol" aria-roledescription="bar" d="M841.5179487179487,73.45454545454544h23.630769230769232v726.5454545454545h-23.630769230769232Z" fill="#4c78a8"/><path aria-label="month: 2022-07; estimatedIncomeDollar: 1001" role="graphics-symbol" aria-roledescription="bar" d="M867.7743589743591,71.99999999999997h23.630769230769232v728h-23.630769230769232Z" fill="#4c78a8"/><path aria-label="month: 2022-08; estimatedIncomeDollar: 1002" role="graphics-symbol" aria-roledescription="bar" d="M894.0307692307692,71.27272727272728h23.630769230769232v728.7272727272727h-23.630769230769232Z" fill="#4c78a8"/><path aria-label="month: 2022-09; estimatedIncomeDollar: 1020" role="graphics-symbol" aria-roledescription="bar" d="M920.2871794871794,58.1818181818182h23.630769230769232v741.8181818181818h-23.630769230769232Z" fill="#4c78a8"/><path aria-label="month: 2022-10; estimatedIncomeDollar: 1023" role="graphics-symbol" aria-roledescription="bar" d="M946.5435897435898,55.99999999999996h23.630769230769232v744h-23.630769230769232Z" fill="#4c78a8"/><path aria-label="month: 2022-11; estimatedIncomeDollar: 1028" role="graphics-symbol" aria-roledescription="bar" d="M972.8,52.363636363636346h23.630769230769232v747.6363636363636h-23.630769230769232Z" fill="#4c78a8"/><path aria-label="month: 2022-12; estimatedIncomeDollar: 1038" role="graphics-symbol" aria-roledescription="bar" d="M999.0564102564103,45.090909090909115h23.630769230769232v754.9090909090909h-23.630769230769232Z" fill="#4c78a8"/></g></g><path class="foreground" aria-hidden="true" d="" display="none"/></g></g></g></svg>