<svg xmlns="http://www.w3.org/2000/svg" xmlns:xlink="http://www.w3.org/1999/xlink" version="1.1" class="marks" width="1080" height="893" viewBox="0 0 1080 893"><rect width="1080" height="893" fill="white"/><g fill="none" stroke-miterlimit="10" transform="translate(51,10)"><g class="mark-group role-frame root" role="graphics-object" aria-roledescription="group mark container"><g transform="translate(0,0)"><path class="background" aria-hidden="true" d="M0.5,0.5h1024v800h-1024Z" stroke="#ddd"/><g><g class="mark-group role-axis" aria-hidden="true"><g transform="translate(0.5,0.5)"><path class="background" aria-hidden="true" d="M0,0h0v0h0Z" pointer-events="none"/><g><g class="mark-rule role-axis-grid" pointer-events="none"><line transform="translate(0,800)" x2="1024" y2="0" stroke="#ddd" stroke-width="1" opacity="1"/><line transform="translate(0,743)" x2="1024" y2="0" stroke="#ddd" stroke-width="1" opacity="1"/><line transform="translate(0,686)" x2="1024" y2="0" stroke="#ddd" stroke-width="1" opacity="1"/><line transform="translate(0,629)" x2="1024" y2="0" stroke="#ddd" stroke-width="1" opacity="1"/><line transform="translate(0,571)" x2="1024" y2="0" stroke="#ddd" stroke-width="1" opacity="1"/><line transform="translate(0,514)" x2="1024" y2="0" stroke="#ddd" stroke-width="1" opacity="1"/><line transform="translate(0,457)" x2="1024" y2="0" stroke="#ddd" stroke-width="1" opacity="1"/><line transform="translate(0,400)" x2="1024" y2="0" stroke="#ddd" stroke-width="1" opacity="1"/><line transform="translate(0,343)" x2="1024" y2="0" stroke="#ddd" stroke-width="1" opacity="1"/><line transform="translate(0,286)" x2="1024" y2="0" stroke="#ddd" stroke-width="1" opacity="1"/><line transform="translate(0,229)" x2="1024" y2="0" stroke="#ddd" stroke-width="1" opacity="1"/><line transform="translate(0,171)" x2="1024" y2="0" stroke="#ddd" stroke-width="1" opacity="1"/><line transform="translate(0,114)" x2="1024" y2="0" stroke="#ddd" stroke-width="1" opacity="1"/><line transform="translate(0,57)" x2="1024" y2="0" stroke="#ddd" stroke-width="1" opacity="1"/><line transform="translate(0,0)" x2="1024" y2="0" stroke="#ddd" stroke-width="1" opacity="1"/></g></g><path class="foreground" aria-hidden="true" d="" pointer-events="none" display="none"/></g></g><g class="mark-group role-axis" role="graphics-symbol" aria-roledescription="axis" aria-label="X-axis titled 'month' for a discrete scale with 24 values: 2019-10, 2019-11, 2019-12, 2020-01, 2020-02, ending with 2021-09"><g transform="translate(0.5,800.5)"><path class="background" aria-hidden="true" d="M0,0h0v0h0Z" pointer-events="none"/><g><g class="mark-rule role-axis-tick" pointer-events="none"><line transform="translate(21,0)" x2="0" y2="5" stroke="#888" stroke-width="1" opacity="1"/><line transform="translate(64,0)" x2="0" y2="5" stroke="#888" stroke-width="1" opacity="1"/><line transform="translate(106,0)" x2="0" y2="5" stroke="#888" stroke-width="1" opacity="1"/><line transform="translate(149,0)" x2="0" y2="5" stroke="#888" stroke-width="1" opacity="1"/><line transform="translate(192,0)" x2="0" y2="5" stroke="#888" stroke-width="1" opacity="1"/><line transform="translate(234,0)" x2="0" y2="5" stroke="#888" stroke-width="1" opacity="1"/><line transform="translate(277,0)" x2="0" y2="5" stroke="#888" stroke-width="1" opacity="1"/><line transform="translate(320,0)" x2="0" y2="5" stroke="#888" stroke-width="1" opacity="1"/><line transform="translate(362,0)" x2="0" y2="5" stroke="#888" stroke-width="1" opacity="1"/><line transform="translate(405,0)" x2="0" y2="5" stroke="#888" stroke-width="1" opacity="1"/><line transform="translate(448,0)" x2="0" y2="5" stroke="#888" stroke-width="1" opacity="1"/><line transform="translate(490,0)" x2="0" y2="5" stroke="#888" stroke-width="1" opacity="1"/><line transform="translate(533,0)" x2="0" y2="5" stroke="#888" stroke-width="1" opacity="1"/><line transform="translate(576,0)" x2="0" y2="5" stroke="#888" stroke-width="1" opacity="1"/><line transform="translate(618,0)" x2="0" y2="5" stroke="#888" stroke-width="1" opacity="1"/><line transform="translate(661,0)" x2="0" y2="5" stroke="#888" stroke-width="1" opacity="1"/><line transform="translate(704,0)" x2="0" y2="5" stroke="#888" stroke-width="1" opacity="1"/><line transform="translate(746,0)" x2="0" y2="5" stroke="#888" stroke-width="1" opacity="1"/><line transform="translate(789,0)" x2="0" y2="5" stroke="#888" stroke-width="1" opacity="1"/><line transform="translate(832,0)" x2="0" y2="5" stroke="#888" stroke-width="1" opacity="1"/><line transform="translate(874,0)" x2="0" y2="5" stroke="#888" stroke-width="1" opacity="1"/><line transform="translate(917,0)" x2="0" y2="5" stroke="#888" stroke-width="1" opacity="1"/><line transform="translate(960,0)" x2="0" y2="5" stroke="#888" stroke-width="1" opacity="1"/><line transform="translate(1002,0)" x2="0" y2="5" stroke="#888" stroke-width="1" opacity="1"/></g><g class="mark-text role-axis-label" pointer-events="none"><text text-anchor="end" transform="translate(20.833333333333382,7) rotate(270) translate(0,3)" font-family="sans-serif" font-size="10px" fill="#000" opacity="1">2019-10</text><text text-anchor="end" transform="translate(63.50000000000004,7) rotate(270) translate(0,3)" font-family="sans-serif" font-size="10px" fill="#000" opacity="1">2019-11</text><text text-anchor="end" transform="translate(106.16666666666671,7) rotate(270) translate(0,3)" font-family="sans-serif" font-size="10px" fill="#000" opacity="1">2019-12</text><text text-anchor="end" transform="translate(148.83333333333337,7) rotate(270) translate(0,3)" font-family="sans-serif" font-size="10px" fill="#000" opacity="1">2020-01</text><text text-anchor="end" transform="translate(191.50000000000003,7) rotate(270) translate(0,3)" font-family="sans-serif" font-size="10px" fill="#000" opacity="1">2020-02</text><text text-anchor="end" transform="translate(234.16666666666669,7) rotate(270) translate(0,3)" font-family="sans-serif" font-size="10px" fill="#000" opacity="1">2020-03</text><text text-anchor="end" transform="translate(276.83333333333337,7) rotate(270) translate(0,3)" font-family="sans-serif" font-size="10px" fill="#000" opacity="1">2020-04</text><text text-anchor="end" transform="translate(319.5,7) rotate(270) translate(0,3)" font-family="sans-serif" font-size="10px" fill="#000" opacity="1">2020-05</text><text text-anchor="end" transform="translate(362.1666666666667,7) rotate(270) translate(0,3)" font-family="sans-serif" font-size="10px" fill="#000" opacity="1">2020-06</text><text text-anchor="end" transform="translate(404.83333333333337,7) rotate(270) translate(0,3)" font-family="sans-serif" font-size="10px" fill="#000" opacity="1">2020-07</text><text text-anchor="end" transform="translate(447.5,7) rotate(270) translate(0,3)" font-family="sans-serif" font-size="10px" fill="#000" opacity="1">2020-08</text><text text-anchor="end" transform="translate(490.1666666666667,7) rotate(270) translate(0,3)" font-family="sans-serif" font-size="10px" fill="#000" opacity="1">2020-09</text><text text-anchor="end" transform="translate(532.8333333333335,7) rotate(270) translate(0,3)" font-family="sans-serif" font-size="10px" fill="#000" opacity="1">2020-10</text><text text-anchor="end" transform="translate(575.5,7) rotate(270) translate(0,3)" font-family="sans-serif" font-size="10px" fill="#000" opacity="1">2020-11</text><text text-anchor="end" transform="translate(618.1666666666667,7) rotate(270) translate(0,3)" font-family="sans-serif" font-size="10px" fill="#000" opacity="1">2020-12</text><text text-anchor="end" transform="translate(660.8333333333335,7) rotate(270) translate(0,3)" font-family="sans-serif" font-size="10px" fill="#000" opacity="1">2021-01</text><text text-anchor="end" transform="translate(703.5,7) rotate(270) translate(0,3)" font-family="sans-serif" font-size="10px" fill="#000" opacity="1">2021-02</text><text text-anchor="end" transform="translate(746.1666666666667,7) rotate(270) translate(0,3)" font-family="sans-serif" font-size="10px" fill="#000" opacity="1">2021-03</text><text text-anchor="end" transform="translate(788.8333333333335,7) rotate(270) translate(0,3)" font-family="sans-serif" font-size="10px" fill="#000" opacity="1">2021-04</text><text text-anchor="end" transform="translate(831.5,7) rotate(270) translate(0,3)" font-family="sans-serif" font-size="10px" fill="#000" opacity="1">2021-05</text><text text-anchor="end" transform="translate(874.1666666666667,7) rotate(270) translate(0,3)" font-family="sans-serif" font-size="10px" fill="#000" opacity="1">2021-06</text><text text-anchor="end" transform="translate(916.8333333333335,7) rotate(270) translate(0,3)" font-family="sans-serif" font-size="10px" fill="#000" opacity="1">2021-07</text><text text-anchor="end" transform="translate(959.5,7) rotate(270) translate(0,3)" font-family="sans-serif" font-size="10px" fill="#000" opacity="1">2021-08</text><text text-anchor="end" transform="translate(1002.1666666666667,7) rotate(270) translate(0,3)" font-family="sans-serif" font-size="10px" fill="#000" opacity="1">2021-09</text></g><g class="mark-rule role-axis-domain" pointer-events="none"><line transform="translate(0,0)" x2="1024" y2="0" stroke="#888" stroke-width="1" opacity="1"/></g><g class="mark-text role-axis-title" pointer-events="none"><text text-anchor="middle" transform="translate(512,76)" font-family="sans-serif" font-size="11px" font-weight="bold" fill="#000" opacity="1">month</text></g></g><path class="foreground" aria-hidden="true" d="" pointer-events="none" display="none"/></g></g><g class="mark-group role-axis" role="graphics-symbol" aria-roledescription="axis" aria-label="Y-axis titled 'estimatedIncomeDollar' for a linear scale with values from 0 to 700"><g transform="translate(0.5,0.5)"><path class="background" aria-hidden="true" d="M0,0h0v0h0Z" pointer-events="none"/><g><g class="mark-rule role-axis-tick" pointer-events="none"><line transform="translate(0,800)" x2="-5" y2="0" stroke="#888" stroke-width="1" opacity="1"/><line transform="translate(0,743)" x2="-5" y2="0" stroke="#888" stroke-width="1" opacity="1"/><line transform="translate(0,686)" x2="-5" y2="0" stroke="#888" stroke-width="1" opacity="1"/><line transform="translate(0,629)" x2="-5" y2="0" stroke="#888" stroke-width="1" opacity="1"/><line transform="translate(0,571)" x2="-5" y2="0" stroke="#888" stroke-width="1" opacity="1"/><line transform="translate(0,514)" x2="-5" y2="0" stroke="#888" stroke-width="1" opacity="1"/><line transform="translate(0,457)" x2="-5" y2="0" stroke="#888" stroke-width="1" opacity="1"/><line transform="translate(0,400)" x2="-5" y2="0" stroke="#888" stroke-width="1" opacity="1"/><line transform="translate(0,343)" x2="-5" y2="0" stroke="#888" stroke-width="1" opacity="1"/><line transform="translate(0,286)" x2="-5" y2="0" stroke="#888" stroke-width="1" opacity="1"/><line transform="translate(0,229)" x2="-5" y2="0" stroke="#888" stroke-width="1" opacity="1"/><line transform="translate(0,171)" x2="-5" y2="0" stroke="#888" stroke-width="1" opacity="1"/><line transform="translate(0,114)" x2="-5" y2="0" stroke="#888" stroke-width="1" opacity="1"/><line transform="translate(0,57)" x2="-5" y2="0" stroke="#888" stroke-width="1" opacity="1"/><line transform="translate(0,0)" x2="-5" y2="0" stroke="#888" stroke-width="1" opacity="1"/></g><g class="mark-text role-axis-label" pointer-events="none"><text text-anchor="end" transform="translate(-7,803)" font-family="sans-serif" font-size="10px" fill="#000" opacity="1">0</text><text text-anchor="end" transform="translate(-7,745.8571428571429)" font-family="sans-serif" font-size="10px" fill="#000" opacity="1">50</text><text text-anchor="end" transform="translate(-7,688.7142857142858)" font-family="sans-serif" font-size="10px" fill="#000" opacity="1">100</text><text text-anchor="end" transform="translate(-7,631.5714285714286)" font-family="sans-serif" font-size="10px" fill="#000" opacity="1">150</text><text text-anchor="end" transform="translate(-7,574.4285714285714)" font-family="sans-serif" font-size="10px" fill="#000" opacity="1">200</text><text text-anchor="end" transform="translate(-7,517.2857142857142)" font-family="sans-serif" font-size="10px" fill="#000" opacity="1">250</text><text text-anchor="end" transform="translate(-7,460.1428571428571)" font-family="sans-serif" font-size="10px" fill="#000" opacity="1">300</text><text text-anchor="end" transform="translate(-7,403)" font-family="sans-serif" font-size="10px" fill="#000" opacity="1">350</text><text text-anchor="end" transform="translate(-7,345.8571428571429)" font-family="sans-serif" font-size="10px" fill="#000" opacity="1">400</text><text text-anchor="end" transform="translate(-7,288.71428571428567)" font-family="sans-serif" font-size="10px" fill="#000" opacity="1">450</text><text text-anchor="end" transform="translate(-7,231.57142857142856)" font-family="sans-serif" font-size="10px" fill="#000" opacity="1">500</text><text text-anchor="end" transform="translate(-7,174.42857142857144)" font-family="sans-serif" font-size="10px" fill="#000" opacity="1">550</text><text text-anchor="end" transform="translate(-7,117.28571428571432)" font-family="sans-serif" font-size="10px" fill="#000" opacity="1">600</text><text text-anchor="end" transform="translate(-7,60.14285714285712)" font-family="sans-serif" font-size="10px" fill="#000" opacity="1">650</text><text text-anchor="end" transform="translate(-7,3)" font-family="sans-serif" font-size="10px" fill="#000" opacity="1">700</text></g><g class="mark-rule role-axis-domain" pointer-events="none"><line transform="translate(0,800)" x2="0" y2="-800" stroke="#888" stroke-width="1" opacity="1"/></g><g class="mark-text role-axis-title" pointer-events="none"><text text-anchor="middle" transform="translate(-35,400) rotate(-90) translate(0,-2)" font-family="sans-serif" font-size="11px" font-weight="bold" fill="#000" opacity="1">estimatedIncomeDollar</text></g></g><path class="foreground" aria-hidden="true" d="" pointer-events="none" display="none"/></g></g><g class="mark-rect role-mark marks" role="graphics-object" aria-roledescription="rect mark container"><path aria-label="month: 2019-10; estimatedIncomeDollar: 88" role="graphics-symbol" aria-roledescription="bar" d="M2.1333333333333826,699.4285714285714h38.4v100.57142857142856h-38.4Z" fill="#4c78a8"/><path aria-label="month: 2019-11; estimatedIncomeDollar: 100" role="graphics-symbol" aria-roledescription="bar" d="M44.80000000000005,685.7142857142858h38.4v114.28571428571422h-38.4Z" fill="#4c78a8"/><path aria-label="month: 2019-12; estimatedIncomeDollar: 107" role="graphics-symbol" aria-roledescription="bar" d="M87.46666666666671,677.7142857142858h38.4v122.28571428571422h-38.4Z" fill="#4c78a8"/><path aria-label="month: 2020-01; estimatedIncomeDollar: 114" role="graphics-symbol" aria-roledescription="bar" d="M130.13333333333338,669.7142857142858h38.4v130.28571428571422h-38.4Z" fill="#4c78a8"/><path aria-label="month: 2020-02; estimatedIncomeDollar: 119" role="graphics-symbol" aria-roledescription="bar" d="M172.80000000000004,664h38.4v136h-38.4Z" fill="#4c78a8"/><path aria-label="month: 2020-03; estimatedIncomeDollar: 120" role="graphics-symbol" aria-roledescription="bar" d="M215.4666666666667,662.8571428571428h38.4v137.14285714285722h-38.4Z" fill="#4c78a8"/><path aria-label="month: 2020-04; estimatedIncomeDollar: 124" role="graphics-symbol" aria-roledescription="bar" d="M258.1333333333334,658.2857142857142h38.4v141.71428571428578h-38.4Z" fill="#4c78a8"/><path aria-label="month: 2020-05; estimatedIncomeDollar: 131" role="graphics-symbol" aria-roledescription="bar" d="M300.8,650.2857142857142h38.4v149.71428571428578h-38.4Z" fill="#4c78a8"/><path aria-label="month: 2020-06; estimatedIncomeDollar: 134" role="graphics-symbol" aria-roledescription="bar" d="M343.4666666666667,646.8571428571429h38.4v153.1428571428571h-38.4Z" fill="#4c78a8"/><path aria-label="month: 2020-07; estimatedIncomeDollar: 134" role="graphics-symbol" aria-roledescription="bar" d="M386.1333333333334,646.8571428571429h38.4v153.1428571428571h-38.4Z" fill="#4c78a8"/><path aria-label="month: 2020-08; estimatedIncomeDollar: 136" role="graphics-symbol" aria-roledescription="bar" d="M428.8,644.5714285714286h38.4v155.42857142857144h-38.4Z" fill="#4c78a8"/><path aria-label="month: 2020-09; estimatedIncomeDollar: 138" role="graphics-symbol" aria-roledescription="bar" d="M471.4666666666667,642.2857142857142h38.4v157.71428571428578h-38.4Z" fill="#4c78a8"/><path aria-label="month: 2020-10; estimatedIncomeDollar: 138" role="graphics-symbol" aria-roledescription="bar" d="M514.1333333333334,642.2857142857142h38.4v157.71428571428578h-38.4Z" fill="#4c78a8"/><path aria-label="month: 2020-11; estimatedIncomeDollar: 143" role="graphics-symbol" aria-roledescription="bar" d="M556.8,636.5714285714286h38.4v163.42857142857144h-38.4Z" fill="#4c78a8"/><path aria-label="month: 2020-12; estimatedIncomeDollar: 250" role="graphics-symbol" aria-roledescription="bar" d="M599.4666666666667,514.2857142857142h38.4v285.7142857142858h-38.4Z" fill="#4c78a8"/><path aria-label="month: 2021-01; estimatedIncomeDollar: 277" role="graphics-symbol" aria-roledescription="bar" d="M642.1333333333334,483.42857142857144h38.4v316.57142857142856h-38.4Z" fill="#4c78a8"/><path aria-label="month: 2021-02; estimatedIncomeDollar: 284" role="graphics-symbol" aria-roledescription="bar" d="M684.8,475.42857142857144h38.4v324.57142857142856h-38.4Z" fill="#4c78a8"/><path aria-label="month: 2021-03; estimatedIncomeDollar: 293" role="graphics-symbol" aria-roledescription="bar" d="M727.4666666666667,465.1428571428571h38.4v334.8571428571429h-38.4Z" fill="#4c78a8"/><path aria-label="month: 2021-04; estimatedIncomeDollar: 295" role="graphics-symbol" aria-roledescription="bar" d="M770.1333333333334,462.85714285714283h38.4v337.14285714285717h-38.4Z" fill="#4c78a8"/><path aria-label="month: 2021-05; estimatedIncomeDollar: 622" role="graphics-symbol" aria-roledescription="bar" d="M812.8,89.14285714285714h38.4v710.8571428571429h-38.4Z" fill="#4c78a8"/><path aria-label="month: 2021-06; estimatedIncomeDollar: 640" role="graphics-symbol" aria-roledescription="bar" d="M855.4666666666667,68.5714285714286h38.4v731.4285714285714h-38.4Z" fill="#4c78a8"/><path aria-label="month: 2021-07; estimatedIncomeDollar: 640" role="graphics-symbol" aria-roledescription="bar" d="M898.1333333333334,68.5714285714286h38.4v731.4285714285714h-38.4Z" fill="#4c78a8"/><path aria-label="month: 2021-08; estimatedIncomeDollar: 640" role="graphics-symbol" aria-roledescription="bar" d="M940.8,68.5714285714286h38.4v731.4285714285714h-38.4Z" fill="#4c78a8"/><path aria-label="month: 2021-09; estimatedIncomeDollar: 664" role="graphics-symbol" aria-roledescription="bar" d="M983.4666666666667,41.1428571428571h38.4v758.8571428571429h-38.4Z" fill="#4c78a8"/></g></g><path class="foreground" aria-hidden="true" d="" display="none"/></g></g></g></svg>