<svg xmlns="http://www.w3.org/2000/svg" xmlns:xlink="http://www.w3.org/1999/xlink" version="1.1" class="marks" width="1080" height="893" viewBox="0 0 1080 893"><rect width="1080" height="893" fill="white"/><g fill="none" stroke-miterlimit="10" transform="translate(51,10)"><g class="mark-group role-frame root" role="graphics-object" aria-roledescription="group mark container"><g transform="translate(0,0)"><path class="background" aria-hidden="true" d="M0.5,0.5h1024v800h-1024Z" stroke="#ddd"/><g><g class="mark-group role-axis" aria-hidden="true"><g transform="translate(0.5,0.5)"><path class="background" aria-hidden="true" d="M0,0h0v0h0Z" pointer-events="none"/><g><g class="mark-rule role-axis-grid" pointer-events="none"><line transform="translate(0,800)" x2="1024" y2="0" stroke="#ddd" stroke-width="1" opacity="1"/><line transform="translate(0,738)" x2="1024" y2="0" stroke="#ddd" stroke-width="1" opacity="1"/><line transform="translate(0,677)" x2="1024" y2="0" stroke="#ddd" stroke-width="1" opacity="1"/><line transform="translate(0,615)" x2="1024" y2="0" stroke="#ddd" stroke-width="1" opacity="1"/><line transform="translate(0,554)" x2="1024" y2="0" stroke="#ddd" stroke-width="1" opacity="1"/><line transform="translate(0,492)" x2="1024" y2="0" stroke="#ddd" stroke-width="1" opacity="1"/><line transform="translate(0,431)" x2="1024" y2="0" stroke="#ddd" stroke-width="1" opacity="1"/><line transform="translate(0,369)" x2="1024" y2="0" stroke="#ddd" stroke-width="1" opacity="1"/><line transform="translate(0,308)" x2="1024" y2="0" stroke="#ddd" stroke-width="1" opacity="1"/><line transform="translate(0,246)" x2="1024" y2="0" stroke="#ddd" stroke-width="1" opacity="1"/><line transform="translate(0,185)" x2="1024" y2="0" stroke="#ddd" stroke-width="1" opacity="1"/><line transform="translate(0,123)" x2="1024" y2="0" stroke="#ddd" stroke-width="1" opacity="1"/><line transform="translate(0,62)" x2="1024" y2="0" stroke="#ddd" stroke-width="1" opacity="1"/><line transform="translate(0,0)" x2="1024" y2="0" stroke="#ddd" stroke-width="1" opacity="1"/></g></g><path class="foreground" aria-hidden="true" d="" pointer-events="none" display="none"/></g></g><g class="mark-group role-axis" role="graphics-symbol" aria-roledescription="axis" aria-label="X-axis titled 'month' for a discrete scale with 24 values: 2019-10, 2019-11, 2019-12, 2020-01, 2020-02, ending with 2021-09"><g transform="translate(0.5,800.5)"><path class="background" aria-hidden="true" d="M0,0h0v0h0Z" pointer-events="none"/><g><g class="mark-rule role-axis-tick" pointer-events="none"><line transform="translate(21,0)" x2="0" y2="5" stroke="#888" stroke-width="1" opacity="1"/><line transform="translate(64,0)" x2="0" y2="5" stroke="#888" stroke-width="1" opacity="1"/><line transform="translate(106,0)" x2="0" y2="5" stroke="#888" stroke-width="1" opacity="1"/><line transform="translate(149,0)" x2="0" y2="5" stroke="#888" stroke-width="1" opacity="1"/><line transform="translate(192,0)" x2="0" y2="5" stroke="#888" stroke-width="1" opacity="1"/><line transform="translate(234,0)" x2="0" y2="5" stroke="#888" stroke-width="1" opacity="1"/><line transform="translate(277,0)" x2="0" y2="5" stroke="#888" stroke-width="1" opacity="1"/><line transform="translate(320,0)" x2="0" y2="5" stroke="#888" stroke-width="1" opacity="1"/><line transform="translate(362,0)" x2="0" y2="5" stroke="#888" stroke-width="1" opacity="1"/><line transform="translate(405,0)" x2="0" y2="5" stroke="#888" stroke-width="1" opacity="1"/><line transform="translate(448,0)" x2="0" y2="5" stroke="#888" stroke-width="1" opacity="1"/><line transform="translate(490,0)" x2="0" y2="5" stroke="#888" stroke-width="1" opacity="1"/><line transform="translate(533,0)" x2="0" y2="5" stroke="#888" stroke-width="1" opacity="1"/><line transform="translate(576,0)" x2="0" y2="5" stroke="#888" stroke-width="1" opacity="1"/><line transform="translate(618,0)" x2="0" y2="5" stroke="#888" stroke-width="1" opacity="1"/><line transform="translate(661,0)" x2="0" y2="5" stroke="#888" stroke-width="1" opacity="1"/><line transform="translate(704,0)" x2="0" y2="5" stroke="#888" stroke-width="1" opacity="1"/><line transform="translate(746,0)" x2="0" y2="5" stroke="#888" stroke-width="1" opacity="1"/><line transform="translate(789,0)" x2="0" y2="5" stroke="#888" stroke-width="1" opacity="1"/><line transform="translate(832,0)" x2="0" y2="5" stroke="#888" stroke-width="1" opacity="1"/><line transform="translate(874,0)" x2="0" y2="5" stroke="#888" stroke-width="1" opacity="1"/><line transform="translate(917,0)" x2="0" y2="5" stroke="#888" stroke-width="1" opacity="1"/><line transform="translate(960,0)" x2="0" y2="5" stroke="#888" stroke-width="1" opacity="1"/><line transform="translate(1002,0)" x2="0" y2="5" stroke="#888" stroke-width="1" opacity="1"/></g><g class="mark-text role-axis-label" pointer-events="none"><text text-anchor="end" transform="translate(20.833333333333382,7) rotate(270) translate(0,3)" font-family="sans-serif" font-size="10px" fill="#000" opacity="1">2019-10</text><text text-anchor="end" transform="translate(63.50000000000004,7) rotate(270) translate(0,3)" font-family="sans-serif" font-size="10px" fill="#000" opacity="1">2019-11</text><text text-anchor="end" transform="translate(106.16666666666671,7) rotate(270) translate(0,3)" font-family="sans-serif" font-size="10px" fill="#000" opacity="1">2019-12</text><text text-anchor="end" transform="translate(148.83333333333337,7) rotate(270) translate(0,3)" font-family="sans-serif" font-size="10px" fill="#000" opacity="1">2020-01</text><text text-anchor="end" transform="translate(191.50000000000003,7) rotate(270) translate(0,3)" font-family="sans-serif" font-size="10px" fill="#000" opacity="1">2020-02</text><text text-anchor="end" transform="translate(234.16666666666669,7) rotate(270) translate(0,3)" font-family="sans-serif" font-size="10px" fill="#000" opacity="1">2020-03</text><text text-anchor="end" transform="translate(276.83333333333337,7) rotate(270) translate(0,3)" font-family="sans-serif" font-size="10px" fill="#000" opacity="1">2020-04</text><text text-anchor="end" transform="translate(319.5,7) rotate(270) translate(0,3)" font-family="sans-serif" font-size="10px" fill="#000" opacity="1">2020-05</text><text text-anchor="end" transform="translate(362.1666666666667,7) rotate(270) translate(0,3)" font-family="sans-serif" font-size="10px" fill="#000" opacity="1">2020-06</text><text text-anchor="end" transform="translate(404.83333333333337,7) rotate(270) translate(0,3)" font-family="sans-serif" font-size="10px" fill="#000" opacity="1">2020-07</text><text text-anchor="end" transform="translate(447.5,7) rotate(270) translate(0,3)" font-family="sans-serif" font-size="10px" fill="#000" opacity="1">2020-08</text><text text-anchor="end" transform="translate(490.1666666666667,7) rotate(270) translate(0,3)" font-family="sans-serif" font-size="10px" fill="#000" opacity="1">2020-09</text><text text-anchor="end" transform="translate(532.8333333333335,7) rotate(270) translate(0,3)" font-family="sans-serif" font-size="10px" fill="#000" opacity="1">2020-10</text><text text-anchor="end" transform="translate(575.5,7) rotate(270) translate(0,3)" font-family="sans-serif" font-size="10px" fill="#000" opacity="1">2020-11</text><text text-anchor="end" transform="translate(618.1666666666667,7) rotate(270) translate(0,3)" font-family="sans-serif" font-size="10px" fill="#000" opacity="1">2020-12</text><text text-anchor="end" transform="translate(660.8333333333335,7) rotate(270) translate(0,3)" font-family="sans-serif" font-size="10px" fill="#000" opacity="1">2021-01</text><text text-anchor="end" transform="translate(703.5,7) rotate(270) translate(0,3)" font-family="sans-serif" font-size="10px" fill="#000" opacity="1">2021-02</text><text text-anchor="end" transform="translate(746.1666666666667,7) rotate(270) translate(0,3)" font-family="sans-serif" font-size="10px" fill="#000" opacity="1">2021-03</text><text text-anchor="end" transform="translate(788.8333333333335,7) rotate(270) translate(0,3)" font-family="sans-serif" font-size="10px" fill="#000" opacity="1">2021-04</text><text text-anchor="end" transform="translate(831.5,7) rotate(270) translate(0,3)" font-family="sans-serif" font-size="10px" fill="#000" opacity="1">2021-05</text><text text-anchor="end" transform="translate(874.1666666666667,7) rotate(270) translate(0,3)" font-family="sans-serif" font-size="10px" fill="#000" opacity="1">2021-06</text><text text-anchor="end" transform="translate(916.8333333333335,7) rotate(270) translate(0,3)" font-family="sans-serif" font-size="10px" fill="#000" opacity="1">2021-07</text><text text-anchor="end" transform="translate(959.5,7) rotate(270) translate(0,3)" font-family="sans-serif" font-size="10px" fill="#000" opacity="1">2021-08</text><text text-anchor="end" transform="translate(1002.1666666666667,7) rotate(270) translate(0,3)" font-family="sans-serif" font-size="10px" fill="#000" opacity="1">2021-09</text></g><g class="mark-rule role-axis-domain" pointer-events="none"><line transform="translate(0,0)" x2="1024" y2="0" stroke="#888" stroke-width="1" opacity="1"/></g><g class="mark-text role-axis-title" pointer-events="none"><text text-anchor="middle" transform="translate(512,76)" font-family="sans-serif" font-size="11px" font-weight="bold" fill="#000" opacity="1">month</text></g></g><path class="foreground" aria-hidden="true" d="" pointer-events="none" display="none"/></g></g><g class="mark-group role-axis" role="graphics-symbol" aria-roledescription="axis" aria-label="Y-axis titled 'estimatedIncomeDollar' for a linear scale with values from 0 to 650"><g transform="translate(0.5,0.5)"><path class="background" aria-hidden="true" d="M0,0h0v0h0Z" pointer-events="none"/><g><g class="mark-rule role-axis-tick" pointer-events="none"><line transform="translate(0,800)" x2="-5" y2="0" stroke="#888" stroke-width="1" opacity="1"/><line transform="translate(0,738)" x2="-5" y2="0" stroke="#888" stroke-width="1" opacity="1"/><line transform="translate(0,677)" x2="-5" y2="0" stroke="#888" stroke-width="1" opacity="1"/><line transform="translate(0,615)" x2="-5" y2="0" stroke="#888" stroke-width="1" opacity="1"/><line transform="translate(0,554)" x2="-5" y2="0" stroke="#888" stroke-width="1" opacity="1"/><line transform="translate(0,492)" x2="-5" y2="0" stroke="#888" stroke-width="1" opacity="1"/><line transform="translate(0,431)" x2="-5" y2="0" stroke="#888" stroke-width="1" opacity="1"/><line transform="translate(0,369)" x2="-5" y2="0" stroke="#888" stroke-width="1" opacity="1"/><line transform="translate(0,308)" x2="-5" y2="0" stroke="#888" stroke-width="1" opacity="1"/><line transform="translate(0,246)" x2="-5" y2="0" stroke="#888" stroke-width="1" opacity="1"/><line transform="translate(0,185)" x2="-5" y2="0" stroke="#888" stroke-width="1" opacity="1"/><line transform="translate(0,123)" x2="-5" y2="0" stroke="#888" stroke-width="1" opacity="1"/><line transform="translate(0,62)" x2="-5" y2="0" stroke="#888" stroke-width="1" opacity="1"/><line transform="translate(0,0)" x2="-5" y2="0" stroke="#888" stroke-width="1" opacity="1"/></g><g class="mark-text role-axis-label" pointer-events="none"><text text-anchor="end" transform="translate(-7,803)" font-family="sans-serif" font-size="10px" fill="#000" opacity="1">0</text><text text-anchor="end" transform="translate(-7,741.4615384615385)" font-family="sans-serif" font-size="10px" fill="#000" opacity="1">50</text><text text-anchor="end" transform="translate(-7,679.9230769230769)" font-family="sans-serif" font-size="10px" fill="#000" opacity="1">100</text><text text-anchor="end" transform="translate(-7,618.3846153846154)" font-family="sans-serif" font-size="10px" fill="#000" opacity="1">150</text><text text-anchor="end" transform="translate(-7,556.8461538461538)" font-family="sans-serif" font-size="10px" fill="#000" opacity="1">200</text><text text-anchor="end" transform="translate(-7,495.3076923076923)" font-family="sans-serif" font-size="10px" fill="#000" opacity="1">250</text><text text-anchor="end" transform="translate(-7,433.7692307692308)" font-family="sans-serif" font-size="10px" fill="#000" opacity="1">300</text><text text-anchor="end" transform="translate(-7,372.2307692307692)" font-family="sans-serif" font-size="10px" fill="#000" opacity="1">350</text><text text-anchor="end" transform="translate(-7,310.6923076923077)" font-family="sans-serif" font-size="10px" fill="#000" opacity="1">400</text><text text-anchor="end" transform="translate(-7,249.15384615384616)" font-family="sans-serif" font-size="10px" fill="#000" opacity="1">450</text><text text-anchor="end" transform="translate(-7,187.61538461538458)" font-family="sans-serif" font-size="10px" fill="#000" opacity="1">500</text><text text-anchor="end" transform="translate(-7,126.07692307692308)" font-family="sans-serif" font-size="10px" fill="#000" opacity="1">550</text><text text-anchor="end" transform="translate(-7,64.53846153846149)" font-family="sans-serif" font-size="10px" fill="#000" opacity="1">600</text><text text-anchor="end" transform="translate(-7,3)" font-family="sans-serif" font-size="10px" fill="#000" opacity="1">650</text></g><g class="mark-rule role-axis-domain" pointer-events="none"><line transform="translate(0,800)" x2="0" y2="-800" stroke="#888" stroke-width="1" opacity="1"/></g><g class="mark-text role-axis-title" pointer-events="none"><text text-anchor="middle" transform="translate(-35,400) rotate(-90) translate(0,-2)" font-family="sans-serif" font-size="11px" font-weight="bold" fill="#000" opacity="1">estimatedIncomeDollar</text></g></g><path class="foreground" aria-hidden="true" d="" pointer-events="none" display="none"/></g></g><g class="mark-rect role-mark marks" role="graphics-object" aria-roledescription="rect mark container"><path aria-label="month: 2019-10; estimatedIncomeDollar: 87" role="graphics-symbol" aria-roledescription="bar" d="M2.1333333333333826,692.9230769230769h38.4v107.0769230769231h-38.4Z" fill="#4c78a8"/><path aria-label="month: 2019-11; estimatedIncomeDollar: 99" role="graphics-symbol" aria-roledescription="bar" d="M44.80000000000005,678.1538461538462h38.4v121.84615384615381h-38.4Z" fill="#4c78a8"/><path aria-label="month: 2019-12; estimatedIncomeDollar: 106" role="graphics-symbol" aria-roledescription="bar" d="M87.46666666666671,669.5384615384615h38.4v130.46153846153845h-38.4Z" fill="#4c78a8"/><path aria-label="month: 2020-01; estimatedIncomeDollar: 113" role="graphics-symbol" aria-roledescription="bar" d="M130.13333333333338,660.9230769230769h38.4v139.0769230769231h-38.4Z" fill="#4c78a8"/><path aria-label="month: 2020-02; estimatedIncomeDollar: 118" role="graphics-symbol" aria-roledescription="bar" d="M172.80000000000004,654.7692307692307h38.4v145.23076923076928h-38.4Z" fill="#4c78a8"/><path aria-label="month: 2020-03; estimatedIncomeDollar: 119" role="graphics-symbol" aria-roledescription="bar" d="M215.4666666666667,653.5384615384614h38.4v146.46153846153857h-38.4Z" fill="#4c78a8"/><path aria-label="month: 2020-04; estimatedIncomeDollar: 123" role="graphics-symbol" aria-roledescription="bar" d="M258.1333333333334,648.6153846153846h38.4v151.38461538461536h-38.4Z" fill="#4c78a8"/><path aria-label="month: 2020-05; estimatedIncomeDollar: 130" role="graphics-symbol" aria-roledescription="bar" d="M300.8,640h38.4v160h-38.4Z" fill="#4c78a8"/><path aria-label="month: 2020-06; estimatedIncomeDollar: 133" role="graphics-symbol" aria-roledescription="bar" d="M343.4666666666667,636.3076923076923h38.4v163.69230769230774h-38.4Z" fill="#4c78a8"/><path aria-label="month: 2020-07; estimatedIncomeDollar: 133" role="graphics-symbol" aria-roledescription="bar" d="M386.1333333333334,636.3076923076923h38.4v163.69230769230774h-38.4Z" fill="#4c78a8"/><path aria-label="month: 2020-08; estimatedIncomeDollar: 135" role="graphics-symbol" aria-roledescription="bar" d="M428.8,633.8461538461538h38.4v166.1538461538462h-38.4Z" fill="#4c78a8"/><path aria-label="month: 2020-09; estimatedIncomeDollar: 137" role="graphics-symbol" aria-roledescription="bar" d="M471.4666666666667,631.3846153846154h38.4v168.61538461538464h-38.4Z" fill="#4c78a8"/><path aria-label="month: 2020-10; estimatedIncomeDollar: 137" role="graphics-symbol" aria-roledescription="bar" d="M514.1333333333334,631.3846153846154h38.4v168.61538461538464h-38.4Z" fill="#4c78a8"/><path aria-label="month: 2020-11; estimatedIncomeDollar: 142" role="graphics-symbol" aria-roledescription="bar" d="M556.8,625.2307692307692h38.4v174.76923076923083h-38.4Z" fill="#4c78a8"/><path aria-label="month: 2020-12; estimatedIncomeDollar: 249" role="graphics-symbol" aria-roledescription="bar" d="M599.4666666666667,493.53846153846155h38.4v306.46153846153845h-38.4Z" fill="#4c78a8"/><path aria-label="month: 2021-01; estimatedIncomeDollar: 271" role="graphics-symbol" aria-roledescription="bar" d="M642.1333333333334,466.46153846153845h38.4v333.53846153846155h-38.4Z" fill="#4c78a8"/><path aria-label="month: 2021-02; estimatedIncomeDollar: 278" role="graphics-symbol" aria-roledescription="bar" d="M684.8,457.8461538461538h38.4v342.1538461538462h-38.4Z" fill="#4c78a8"/><path aria-label="month: 2021-03; estimatedIncomeDollar: 287" role="graphics-symbol" aria-roledescription="bar" d="M727.4666666666667,446.7692307692308h38.4v353.2307692307692h-38.4Z" fill="#4c78a8"/><path aria-label="month: 2021-04; estimatedIncomeDollar: 289" role="graphics-symbol" aria-roledescription="bar" d="M770.1333333333334,444.30769230769226h38.4v355.69230769230774h-38.4Z" fill="#4c78a8"/><path aria-label="month: 2021-05; estimatedIncomeDollar: 616" role="graphics-symbol" aria-roledescription="bar" d="M812.8,41.846153846153825h38.4v758.1538461538462h-38.4Z" fill="#4c78a8"/><path aria-label="month: 2021-06; estimatedIncomeDollar: 634" role="graphics-symbol" aria-roledescription="bar" d="M855.4666666666667,19.692307692307676h38.4v780.3076923076924h-38.4Z" fill="#4c78a8"/><path aria-label="month: 2021-07; estimatedIncomeDollar: 634" role="graphics-symbol" aria-roledescription="bar" d="M898.1333333333334,19.692307692307676h38.4v780.3076923076924h-38.4Z" fill="#4c78a8"/><path aria-label="month: 2021-08; estimatedIncomeDollar: 635" role="graphics-symbol" aria-roledescription="bar" d="M940.8,18.461538461538485h38.4v781.5384615384615h-38.4Z" fill="#4c78a8"/><path aria-label="month: 2021-09; estimatedIncomeDollar: 637" role="graphics-symbol" aria-roledescription="bar" d="M983.4666666666667,16.000000000000014h38.4v784h-38.4Z" fill="#4c78a8"/></g></g><path class="foreground" aria-hidden="true" d="" display="none"/></g></g></g></svg>